<?xml version="1.0" encoding="UTF-8" standalone="no"?><!DOCTYPE svg PUBLIC "-//W3C//DTD SVG 1.1//EN" "http://www.w3.org/Graphics/SVG/1.1/DTD/svg11.dtd"><svg width="100%" height="100%" viewBox="0 0 800 400" version="1.1" xmlns="http://www.w3.org/2000/svg" xmlns:xlink="http://www.w3.org/1999/xlink" xml:space="preserve" xmlns:serif="http://www.serif.com/" style="fill-rule:evenodd;clip-rule:evenodd;stroke-linecap:round;stroke-linejoin:round;stroke-miterlimit:1.5;"><g id="Video"><rect x="470.055" y="129.874" width="128.892" height="161.115" style="fill:#7a8087;"/><rect x="265.562" y="116.241" width="273.896" height="188.381" style="fill:#b3b8be;"/><rect x="276.9" y="127.611" width="159.073" height="120.001" style="fill:#e9eaeb;stroke:#fff;stroke-width:3px;"/></g><circle cx="741.61" cy="105.706" r="8.056" style="fill:#a1cc92;stroke:#fcfcfc;stroke-width:3px;"/><circle cx="741.61" cy="134.211" r="8.056" style="fill:#a1cc92;stroke:#fcfcfc;stroke-width:3px;"/><circle cx="741.61" cy="163.956" r="8.056" style="fill:#a1cc92;stroke:#fcfcfc;stroke-width:3px;"/><circle cx="741.61" cy="194.94" r="8.056" style="fill:#a1cc92;stroke:#fcfcfc;stroke-width:3px;"/><circle cx="741.61" cy="225.923" r="8.056" style="fill:#a1cc92;stroke:#fcfcfc;stroke-width:3px;"/><circle cx="741.61" cy="255.668" r="8.056" style="fill:#a1cc92;stroke:#fcfcfc;stroke-width:3px;"/><g id="Volume"><rect x="673.922" y="81.198" width="21.069" height="219.365" style="fill:#7a8087;"/><rect x="652.853" y="31.828" width="63.207" height="63.207" style="fill:#b3b8be;"/><rect x="654.093" y="221.864" width="63.207" height="63.207" style="fill:#b3b8be;"/><rect x="654.093" y="293.747" width="63.207" height="17.351" style="fill:#b3b8be;"/></g><g id="Button"><circle cx="150.635" cy="345.178" r="30.364" style="fill:#b3b8be;"/><path d="M148.214,343.654c0.525,0.33 0.843,0.907 0.843,1.527c0,0.619 -0.318,1.196 -0.843,1.526c-3.038,1.917 -8.237,5.196 -11.43,7.21c-0.556,0.35 -1.259,0.371 -1.834,0.053c-0.576,-0.317 -0.934,-0.923 -0.934,-1.58c0,-3.932 0,-10.487 0,-14.419c0,-0.657 0.358,-1.263 0.934,-1.58c0.575,-0.318 1.278,-0.297 1.834,0.054c3.193,2.014 8.392,5.293 11.43,7.209Z" style="fill:#7a8087;"/><path d="M158.365,338.313c0,-0.479 -0.19,-0.938 -0.529,-1.277c-0.338,-0.338 -0.797,-0.528 -1.276,-0.528c-0.157,0 -0.315,0 -0.471,0c-0.479,0 -0.938,0.19 -1.277,0.528c-0.338,0.339 -0.528,0.798 -0.528,1.277c0,3.33 0,10.405 0,13.735c0,0.479 0.19,0.938 0.528,1.277c0.339,0.338 0.798,0.529 1.277,0.529c0.156,0 0.314,0 0.471,0c0.479,0 0.938,-0.191 1.276,-0.529c0.339,-0.339 0.529,-0.798 0.529,-1.277c0,-3.33 0,-10.405 0,-13.735Z" style="fill:#7a8087;"/><path d="M165.507,338.313c0,-0.479 -0.19,-0.938 -0.528,-1.277c-0.339,-0.338 -0.798,-0.528 -1.277,-0.528c-0.156,0 -0.314,0 -0.471,0c-0.479,0 -0.938,0.19 -1.276,0.528c-0.339,0.339 -0.529,0.798 -0.529,1.277c0,3.33 0,10.405 0,13.735c0,0.479 0.19,0.938 0.529,1.277c0.338,0.338 0.797,0.529 1.276,0.529c0.157,0 0.315,0 0.471,0c0.479,0 0.938,-0.191 1.277,-0.529c0.338,-0.339 0.528,-0.798 0.528,-1.277c0,-3.33 0,-10.405 0,-13.735Z" style="fill:#7a8087;"/></g><g id="Volume-icon" serif:id="Volume icon"><path d="M670.258,65.038c-0.524,-0.33 -0.842,-0.907 -0.842,-1.526c0,-0.62 0.318,-1.197 0.842,-1.527c3.039,-1.916 8.238,-5.196 11.431,-7.209c0.556,-0.351 1.259,-0.372 1.834,-0.054c0.576,0.317 0.934,0.923 0.934,1.58c0,3.932 0,10.487 0,14.419c0,0.657 -0.358,1.263 -0.934,1.58c-0.575,0.318 -1.278,0.297 -1.834,-0.054c-3.193,-2.013 -8.392,-5.292 -11.431,-7.209Z" style="fill:#7a8087;"/><path d="M691.821,58.737c0,-0.376 -0.15,-0.737 -0.416,-1.004c-0.267,-0.266 -0.628,-0.416 -1.004,-0.416c-0.001,0 -0.002,0 -0.002,0c-0.377,0 -0.738,0.15 -1.004,0.416c-0.267,0.267 -0.416,0.628 -0.416,1.004c0,2.384 0,7.165 0,9.549c0,0.376 0.149,0.738 0.416,1.004c0.266,0.266 0.627,0.416 1.004,0.416c0,0 0.001,0 0.002,0c0.376,0 0.737,-0.15 1.004,-0.416c0.266,-0.266 0.416,-0.628 0.416,-1.004c0,-2.384 0,-7.165 0,-9.549Z" style="fill:#7a8087;"/><path d="M696.778,56.928c0,-0.784 -0.636,-1.42 -1.42,-1.42c-0.001,0 -0.001,0 -0.002,0c-0.784,0 -1.42,0.636 -1.42,1.42c0,3.149 0,10.688 0,13.836c0,0.785 0.636,1.42 1.42,1.42c0.001,0 0.001,0 0.002,0c0.784,0 1.42,-0.635 1.42,-1.42c0,-3.148 0,-10.687 0,-13.836Z" style="fill:#7a8087;"/><path d="M701.735,55.019c0,-0.376 -0.149,-0.738 -0.415,-1.004c-0.267,-0.266 -0.628,-0.416 -1.005,-0.416c0,0 -0.001,0 -0.002,0c-0.376,0 -0.737,0.15 -1.004,0.416c-0.266,0.266 -0.416,0.628 -0.416,1.004c0,3.738 0,13.817 0,17.554c0,0.377 0.15,0.738 0.416,1.004c0.267,0.267 0.628,0.416 1.004,0.416c0.001,0 0.002,0 0.002,0c0.377,0 0.738,-0.149 1.005,-0.416c0.266,-0.266 0.415,-0.627 0.415,-1.004c0,-3.737 0,-13.816 0,-17.554Z" style="fill:#7a8087;"/><path d="M676.147,59.093c0,0 -4.685,0 -7.02,0c-0.342,0 -0.67,0.136 -0.912,0.378c-0.241,0.242 -0.377,0.57 -0.377,0.912c0,1.64 0,4.456 0,6.096c0,0.342 0.136,0.67 0.377,0.912c0.242,0.242 0.57,0.378 0.912,0.378c2.335,0 7.02,0 7.02,0l0,-8.676Z" style="fill:#7a8087;"/></g><g id="Crop"><path d="M329.605,31.828l-50.443,0l0,50.942l25.89,17.979l24.553,-17.979l0,-50.942Z" style="fill:#b3b8be;"/><path d="M519.225,31.828l-50.443,0l0,50.942l25.891,17.979l24.552,-17.979l0,-50.942Z" style="fill:#b3b8be;"/></g><g id="_2" serif:id="2"><circle cx="217.09" cy="345.178" r="20.091" style="fill:#fff;"/><text x="209.93px" y="352.915px" style="font-family:'AftenScreen-Bold', 'Aften Screen', sans-serif;font-weight:700;font-size:24.787px;fill:#282829;">2</text></g><g id="_4" serif:id="4"><circle cx="552.711" cy="51.918" r="20.091" style="fill:#fff;"/><text x="544.928px" y="59.655px" style="font-family:'AftenScreen-Bold', 'Aften Screen', sans-serif;font-weight:700;font-size:24.787px;fill:#282829;">4</text></g><g id="_41" serif:id="4"><circle cx="65.813" cy="272.333" r="20.091" style="fill:#fff;"/><text x="58.405px" y="280.07px" style="font-family:'AftenScreen-Bold', 'Aften Screen', sans-serif;font-weight:700;font-size:24.787px;fill:#282829;">5</text></g><g id="_42" serif:id="4"><circle cx="124.09" cy="51.918" r="20.091" style="fill:#fff;"/><text x="116.307px" y="59.655px" style="font-family:'AftenScreen-Bold', 'Aften Screen', sans-serif;font-weight:700;font-size:24.787px;fill:#282829;">6</text></g><g id="_3" serif:id="3"><circle cx="752.666" cy="51.918" r="20.091" style="fill:#fff;"/><text x="745.506px" y="59.655px" style="font-family:'AftenScreen-Bold', 'Aften Screen', sans-serif;font-weight:700;font-size:24.787px;fill:#282829;">3</text></g><g id="_1" serif:id="1"><circle cx="572.801" cy="325.178" r="20.091" style="fill:#fff;"/><text x="567.687px" y="332.915px" style="font-family:'AftenScreen-Bold', 'Aften Screen', sans-serif;font-weight:700;font-size:24.787px;fill:#282829;">1</text></g><g id="Glass"><rect x="40.626" y="116.271" width="178.336" height="122.656" style="fill:#b6d9ec;"/><g><clipPath id="_clip1"><rect x="40.626" y="116.271" width="178.336" height="122.656"/></clipPath><g clip-path="url(#_clip1)"><path d="M228.178,132.416l-158.241,113.591l11.149,15.532l158.242,-113.59l-11.15,-15.533Z" style="fill:#fff;fill-opacity:0.301961;"/><path d="M163.056,6.963l-191.504,137.468l77.39,107.812l191.505,-137.468l-77.391,-107.812Z" style="fill:#fff;fill-opacity:0.4;"/></g></g></g><text x="319.502px" y="194.017px" style="font-family:'AftenScreen-Bold', 'Aften Screen', sans-serif;font-weight:700;font-size:24.787px;fill:#282829;">V<tspan x="334.401px 341.336px 356.428px 370.432px " y="194.017px 194.017px 194.017px 194.017px ">ideo</tspan></text><rect x="40.626" y="31.828" width="50.374" height="51.127" style="fill:#b3b8be;"/></svg>