<?xml version="1.0" encoding="UTF-8" standalone="no"?><!DOCTYPE svg PUBLIC "-//W3C//DTD SVG 1.1//EN" "http://www.w3.org/Graphics/SVG/1.1/DTD/svg11.dtd"><svg width="100%" height="100%" viewBox="0 0 600 600" version="1.1" xmlns="http://www.w3.org/2000/svg" xmlns:xlink="http://www.w3.org/1999/xlink" xml:space="preserve" xmlns:serif="http://www.serif.com/" style="fill-rule:evenodd;clip-rule:evenodd;stroke-linejoin:round;stroke-miterlimit:1.41421;"><rect x="-13.387" y="-9.176" width="681.664" height="649.33"/><circle cx="302.112" cy="307.87" r="221.71" style="fill:#fff;"/><g><path d="M167.646,270.305c0.221,1.273 0.664,2.406 1.331,3.398c0.667,0.992 1.479,1.813 2.437,2.463c0.957,0.65 2.019,1.1 3.184,1.35c1.165,0.251 2.356,0.27 3.573,0.06c1.216,-0.211 2.331,-0.629 3.345,-1.256c1.013,-0.627 1.868,-1.409 2.566,-2.346c0.698,-0.936 1.194,-1.984 1.489,-3.142c0.295,-1.158 0.332,-2.374 0.112,-3.647c-0.22,-1.273 -0.664,-2.406 -1.331,-3.398c-0.667,-0.992 -1.486,-1.812 -2.458,-2.459c-0.972,-0.648 -2.04,-1.097 -3.205,-1.347c-1.165,-0.25 -2.356,-0.27 -3.573,-0.06c-1.216,0.211 -2.331,0.629 -3.345,1.256c-1.013,0.627 -1.862,1.408 -2.545,2.342c-0.683,0.934 -1.173,1.98 -1.468,3.139c-0.295,1.158 -0.332,2.374 -0.112,3.647Zm-8.7,1.505c-0.411,-2.376 -0.355,-4.666 0.167,-6.869c0.522,-2.203 1.429,-4.203 2.721,-6c1.292,-1.797 2.945,-3.314 4.96,-4.552c2.015,-1.237 4.324,-2.081 6.927,-2.531c2.575,-0.446 5.026,-0.425 7.354,0.061c2.328,0.486 4.409,1.357 6.244,2.613c1.834,1.256 3.367,2.834 4.599,4.734c1.232,1.899 2.054,4.037 2.465,6.414c0.411,2.376 0.356,4.666 -0.167,6.869c-0.522,2.203 -1.436,4.204 -2.742,6.004c-1.306,1.799 -2.973,3.319 -5.003,4.558c-2.029,1.24 -4.331,2.083 -6.905,2.528c-2.603,0.451 -5.062,0.432 -7.375,-0.057c-2.314,-0.488 -4.381,-1.362 -6.202,-2.621c-1.82,-1.258 -3.346,-2.837 -4.578,-4.737c-1.232,-1.899 -2.054,-4.037 -2.465,-6.414Z" style="fill-rule:nonzero;"/><path d="M197.594,291.864l5.205,-32.055l8.333,1.353l12.207,22.098l3.182,-19.599l8.29,1.347l-5.205,32.054l-8.29,-1.346l-12.207,-22.098l-3.183,19.599l-8.332,-1.353Z" style="fill-rule:nonzero;"/><path d="M262.722,262.679c-2.082,-2.271 -4.556,-3.327 -7.423,-3.167c-1.262,0.07 -2.417,0.364 -3.467,0.883c-1.049,0.519 -1.939,1.194 -2.669,2.025c-0.73,0.831 -1.287,1.804 -1.671,2.918c-0.384,1.115 -0.54,2.302 -0.47,3.564c0.072,1.29 0.36,2.467 0.865,3.532c0.505,1.065 1.174,1.976 2.007,2.735c0.833,0.759 1.793,1.338 2.879,1.738c1.087,0.4 2.246,0.565 3.479,0.496c2.695,-0.15 5.053,-1.431 7.076,-3.844l0.555,9.976l-0.843,0.349c-1.265,0.531 -2.45,0.935 -3.556,1.212c-1.106,0.277 -2.204,0.446 -3.293,0.507c-2.237,0.124 -4.403,-0.179 -6.5,-0.911c-2.097,-0.732 -3.969,-1.821 -5.617,-3.268c-1.648,-1.446 -3.003,-3.197 -4.067,-5.252c-1.063,-2.054 -1.664,-4.328 -1.803,-6.822c-0.139,-2.495 0.2,-4.807 1.016,-6.937c0.816,-2.131 1.963,-3.992 3.442,-5.584c1.478,-1.592 3.226,-2.868 5.243,-3.829c2.017,-0.961 4.158,-1.504 6.423,-1.63c1.29,-0.072 2.566,-0.006 3.829,0.197c1.262,0.203 2.597,0.552 4.005,1.049l0.56,10.063Z" style="fill-rule:nonzero;"/><path d="M288.781,268.187l-9.944,1.351l0.73,5.377l9.389,-1.275l0.963,7.084l-9.389,1.276l0.754,5.548l9.944,-1.351l0.962,7.084l-18.308,2.488l-4.373,-32.179l18.309,-2.488l0.963,7.085Z" style="fill-rule:nonzero;"/><path d="M313.67,253.505l2.545,17.474c0.137,0.937 0.312,1.891 0.526,2.861c0.214,0.97 0.556,1.827 1.027,2.571c0.471,0.743 1.127,1.308 1.966,1.694c0.84,0.385 1.956,0.476 3.348,0.274c1.392,-0.203 2.429,-0.608 3.109,-1.215c0.681,-0.607 1.148,-1.335 1.401,-2.185c0.254,-0.849 0.345,-1.769 0.273,-2.759c-0.072,-0.991 -0.176,-1.955 -0.313,-2.893l-2.545,-17.474l8.31,-1.211l2.714,18.625c0.728,5.001 0.116,8.819 -1.836,11.453c-1.951,2.635 -5.3,4.298 -10.045,4.989c-4.745,0.691 -8.436,0.054 -11.073,-1.912c-2.636,-1.966 -4.319,-5.45 -5.047,-10.451l-2.714,-18.624l8.354,-1.217Z" style="fill-rule:nonzero;"/><path d="M351.357,277.615l2.769,0.412c3.067,0.456 4.799,-0.651 5.196,-3.321c0.397,-2.669 -0.939,-4.232 -4.006,-4.688l-2.769,-0.412l-1.19,8.009Zm-2.584,17.382l-8.35,-1.241l4.774,-32.122l13.292,1.976c3.607,0.536 6.23,1.884 7.868,4.043c1.639,2.159 2.205,4.943 1.698,8.351c-0.506,3.408 -1.858,5.907 -4.053,7.497c-2.196,1.589 -5.097,2.116 -8.704,1.58l-4.942,-0.735l-1.583,10.651Z" style="fill-rule:nonzero;"/><path d="M379.459,270.724c0.279,1.262 0.775,2.372 1.488,3.332c0.712,0.96 1.562,1.742 2.549,2.347c0.987,0.605 2.068,1.005 3.243,1.2c1.176,0.196 2.366,0.16 3.572,-0.107c1.205,-0.267 2.299,-0.737 3.283,-1.411c0.983,-0.674 1.801,-1.494 2.454,-2.463c0.653,-0.968 1.1,-2.037 1.34,-3.208c0.241,-1.171 0.221,-2.387 -0.058,-3.649c-0.279,-1.261 -0.775,-2.372 -1.488,-3.331c-0.713,-0.96 -1.569,-1.741 -2.57,-2.342c-1.001,-0.602 -2.089,-1.001 -3.265,-1.196c-1.175,-0.196 -2.366,-0.16 -3.571,0.107c-1.206,0.267 -2.3,0.737 -3.283,1.411c-0.983,0.674 -1.794,1.493 -2.433,2.458c-0.639,0.965 -1.079,2.033 -1.32,3.204c-0.24,1.171 -0.221,2.387 0.059,3.648Zm-8.621,1.91c-0.521,-2.355 -0.573,-4.645 -0.154,-6.87c0.419,-2.225 1.232,-4.265 2.438,-6.12c1.207,-1.856 2.788,-3.448 4.743,-4.778c1.955,-1.33 4.222,-2.281 6.801,-2.852c2.551,-0.566 5.001,-0.66 7.349,-0.283c2.348,0.377 4.467,1.15 6.358,2.319c1.892,1.169 3.497,2.674 4.816,4.514c1.319,1.84 2.24,3.937 2.761,6.292c0.522,2.355 0.573,4.645 0.155,6.87c-0.419,2.224 -1.239,4.266 -2.459,6.125c-1.221,1.858 -2.816,3.454 -4.785,4.787c-1.969,1.333 -4.229,2.282 -6.78,2.848c-2.579,0.571 -5.036,0.666 -7.37,0.287c-2.334,-0.38 -4.439,-1.157 -6.317,-2.329c-1.877,-1.172 -3.475,-2.678 -4.794,-4.518c-1.32,-1.84 -2.24,-3.937 -2.762,-6.292Z" style="fill-rule:nonzero;"/><path d="M410.315,294.217l2.936,-32.341l8.407,0.763l13.732,21.183l1.795,-19.774l8.364,0.759l-2.935,32.342l-8.365,-0.759l-13.732,-21.184l-1.795,19.774l-8.407,-0.763Z" style="fill-rule:nonzero;"/><path d="M187.958,350.893l-3.102,-11.027l-4.463,10.55l7.565,0.477Zm1.831,6.546l-12.035,-0.759l-2.29,5.509l-8.983,-0.567l14.381,-31.632l9.198,0.581l10.292,33.188l-8.984,-0.567l-1.579,-5.753Z" style="fill-rule:nonzero;"/><path d="M235.626,329.59c-1.062,-0.522 -2.082,-0.855 -3.058,-0.999c-0.975,-0.144 -1.883,-0.12 -2.723,0.073c-1.063,0.245 -1.873,0.696 -2.429,1.354c-0.555,0.658 -0.74,1.393 -0.554,2.204c0.129,0.56 0.403,0.983 0.822,1.27c0.42,0.286 0.933,0.5 1.54,0.64c0.606,0.141 1.275,0.23 2.006,0.269c0.73,0.038 1.457,0.092 2.18,0.161c2.892,0.278 5.133,1.023 6.723,2.234c1.589,1.211 2.66,3.02 3.213,5.426c0.373,1.623 0.438,3.155 0.194,4.596c-0.243,1.44 -0.782,2.75 -1.616,3.929c-0.834,1.178 -1.954,2.202 -3.36,3.07c-1.406,0.868 -3.075,1.524 -5.005,1.968c-4.002,0.919 -7.983,0.582 -11.944,-1.012l2.002,-7.442c1.482,0.808 2.886,1.34 4.211,1.595c1.326,0.255 2.576,0.248 3.752,-0.022c1.343,-0.309 2.272,-0.847 2.789,-1.614c0.516,-0.766 0.684,-1.542 0.504,-2.325c-0.11,-0.476 -0.288,-0.869 -0.537,-1.18c-0.248,-0.312 -0.602,-0.569 -1.061,-0.773c-0.459,-0.204 -1.033,-0.359 -1.72,-0.466c-0.688,-0.108 -1.515,-0.212 -2.481,-0.314c-1.14,-0.092 -2.268,-0.223 -3.383,-0.394c-1.114,-0.171 -2.147,-0.501 -3.099,-0.989c-0.952,-0.488 -1.79,-1.187 -2.515,-2.096c-0.724,-0.909 -1.267,-2.147 -1.627,-3.714c-0.36,-1.567 -0.427,-3.047 -0.202,-4.439c0.225,-1.392 0.702,-2.651 1.43,-3.775c0.729,-1.125 1.714,-2.096 2.955,-2.911c1.242,-0.816 2.702,-1.416 4.381,-1.802c1.567,-0.36 3.254,-0.52 5.06,-0.478c1.807,0.041 3.59,0.302 5.35,0.781l-1.798,7.175Z" style="fill-rule:nonzero;"/><path d="M256.797,341.734l11.984,2.219l2.283,-12.324l8.3,1.538l-5.913,31.931l-8.301,-1.537l2.439,-13.171l-11.985,-2.219l-2.439,13.17l-8.3,-1.537l5.913,-31.931l8.301,1.537l-2.282,12.324Z" style="fill-rule:nonzero;"/><path d="M301.504,342.735l-4.829,-10.388l-2.714,11.13l7.543,-0.742Zm2.857,6.168l-12.002,1.179l-1.377,5.805l-8.958,0.88l9.125,-33.527l9.173,-0.902l15.478,31.11l-8.958,0.88l-2.481,-5.425Z" style="fill-rule:nonzero;"/><path d="M324.629,354.123l1.893,0.415c1.431,0.313 2.756,0.368 3.976,0.165c1.22,-0.203 2.302,-0.613 3.246,-1.229c0.943,-0.616 1.736,-1.42 2.379,-2.411c0.643,-0.991 1.106,-2.131 1.389,-3.421c0.276,-1.263 0.324,-2.487 0.143,-3.673c-0.182,-1.186 -0.572,-2.256 -1.171,-3.21c-0.6,-0.954 -1.411,-1.779 -2.435,-2.473c-1.023,-0.695 -2.236,-1.195 -3.639,-1.503l-1.893,-0.414l-3.888,17.754Zm-2.829,-26.544l12.201,2.672c2.16,0.473 4.091,1.351 5.794,2.635c1.703,1.285 3.104,2.804 4.205,4.559c1.1,1.754 1.846,3.681 2.239,5.781c0.392,2.099 0.358,4.201 -0.102,6.304c-0.455,2.076 -1.292,3.987 -2.512,5.733c-1.22,1.746 -2.698,3.194 -4.434,4.342c-1.736,1.148 -3.646,1.95 -5.729,2.405c-2.084,0.455 -4.22,0.443 -6.408,-0.036l-12.201,-2.672l6.947,-31.723Z" style="fill-rule:nonzero;"/><path d="M359.352,340.525c0.222,1.273 0.668,2.405 1.337,3.396c0.669,0.99 1.483,1.81 2.441,2.458c0.959,0.649 2.021,1.097 3.187,1.345c1.166,0.248 2.357,0.265 3.573,0.052c1.216,-0.212 2.33,-0.633 3.342,-1.262c1.013,-0.629 1.867,-1.413 2.562,-2.35c0.696,-0.938 1.19,-1.987 1.483,-3.146c0.293,-1.159 0.328,-2.374 0.105,-3.647c-0.222,-1.273 -0.668,-2.405 -1.337,-3.395c-0.669,-0.991 -1.49,-1.809 -2.463,-2.455c-0.973,-0.646 -2.042,-1.093 -3.207,-1.341c-1.166,-0.248 -2.357,-0.265 -3.573,-0.053c-1.216,0.213 -2.33,0.634 -3.343,1.263c-1.012,0.629 -1.859,1.411 -2.54,2.347c-0.682,0.935 -1.169,1.982 -1.462,3.141c-0.293,1.159 -0.328,2.375 -0.105,3.647Zm-8.697,1.522c-0.416,-2.376 -0.365,-4.666 0.153,-6.87c0.518,-2.203 1.421,-4.205 2.71,-6.005c1.288,-1.799 2.939,-3.319 4.951,-4.561c2.013,-1.241 4.321,-2.089 6.923,-2.544c2.573,-0.451 5.025,-0.435 7.353,0.047c2.329,0.481 4.412,1.348 6.249,2.601c1.837,1.253 3.373,2.828 4.609,4.725c1.235,1.897 2.061,4.033 2.477,6.409c0.415,2.376 0.364,4.666 -0.154,6.87c-0.518,2.204 -1.428,4.207 -2.731,6.009c-1.302,1.802 -2.967,3.324 -4.994,4.568c-2.027,1.244 -4.327,2.091 -6.901,2.541c-2.602,0.455 -5.06,0.441 -7.375,-0.043c-2.315,-0.484 -4.383,-1.354 -6.206,-2.609c-1.823,-1.255 -3.352,-2.831 -4.588,-4.728c-1.235,-1.898 -2.061,-4.034 -2.476,-6.41Z" style="fill-rule:nonzero;"/><path d="M398.903,328.282l2.755,21.533l9.624,-19.87l6.659,0.895l4.036,21.706l8.343,-20.042l8.75,1.176l-13.93,30.894l-8.537,-1.147l-3.81,-19.503l-8.825,17.805l-8.537,-1.148l-5.278,-33.475l8.75,1.176Z" style="fill-rule:nonzero;"/><path d="M187.958,350.893l-3.102,-11.027l-4.463,10.55l7.565,0.477Zm1.831,6.546l-12.035,-0.759l-2.29,5.509l-8.983,-0.567l14.381,-31.632l9.198,0.581l10.292,33.188l-8.984,-0.567l-1.579,-5.753Z" style="fill-rule:nonzero;"/><path d="M235.626,329.59c-1.062,-0.522 -2.082,-0.855 -3.058,-0.999c-0.975,-0.144 -1.883,-0.12 -2.723,0.073c-1.063,0.245 -1.873,0.696 -2.429,1.354c-0.555,0.658 -0.74,1.393 -0.554,2.204c0.129,0.56 0.403,0.983 0.822,1.27c0.42,0.286 0.933,0.5 1.54,0.64c0.606,0.141 1.275,0.23 2.006,0.269c0.73,0.038 1.457,0.092 2.18,0.161c2.892,0.278 5.133,1.023 6.723,2.234c1.589,1.211 2.66,3.02 3.213,5.426c0.373,1.623 0.438,3.155 0.194,4.596c-0.243,1.44 -0.782,2.75 -1.616,3.929c-0.834,1.178 -1.954,2.202 -3.36,3.07c-1.406,0.868 -3.075,1.524 -5.005,1.968c-4.002,0.919 -7.983,0.582 -11.944,-1.012l2.002,-7.442c1.482,0.808 2.886,1.34 4.211,1.595c1.326,0.255 2.576,0.248 3.752,-0.022c1.343,-0.309 2.272,-0.847 2.789,-1.614c0.516,-0.766 0.684,-1.542 0.504,-2.325c-0.11,-0.476 -0.288,-0.869 -0.537,-1.18c-0.248,-0.312 -0.602,-0.569 -1.061,-0.773c-0.459,-0.204 -1.033,-0.359 -1.72,-0.466c-0.688,-0.108 -1.515,-0.212 -2.481,-0.314c-1.14,-0.092 -2.268,-0.223 -3.383,-0.394c-1.114,-0.171 -2.147,-0.501 -3.099,-0.989c-0.952,-0.488 -1.79,-1.187 -2.515,-2.096c-0.724,-0.909 -1.267,-2.147 -1.627,-3.714c-0.36,-1.567 -0.427,-3.047 -0.202,-4.439c0.225,-1.392 0.702,-2.651 1.43,-3.775c0.729,-1.125 1.714,-2.096 2.955,-2.911c1.242,-0.816 2.702,-1.416 4.381,-1.802c1.567,-0.36 3.254,-0.52 5.06,-0.478c1.807,0.041 3.59,0.302 5.35,0.781l-1.798,7.175Z" style="fill-rule:nonzero;"/><path d="M256.797,341.734l11.984,2.219l2.283,-12.324l8.3,1.538l-5.913,31.931l-8.301,-1.537l2.439,-13.171l-11.985,-2.219l-2.439,13.17l-8.3,-1.537l5.913,-31.931l8.301,1.537l-2.282,12.324Z" style="fill-rule:nonzero;"/><path d="M301.504,342.735l-4.829,-10.388l-2.714,11.13l7.543,-0.742Zm2.857,6.168l-12.002,1.179l-1.377,5.805l-8.958,0.88l9.125,-33.527l9.173,-0.902l15.478,31.11l-8.958,0.88l-2.481,-5.425Z" style="fill-rule:nonzero;"/><path d="M324.629,354.123l1.893,0.415c1.431,0.313 2.756,0.368 3.976,0.165c1.22,-0.203 2.302,-0.613 3.246,-1.229c0.943,-0.616 1.736,-1.42 2.379,-2.411c0.643,-0.991 1.106,-2.131 1.389,-3.421c0.276,-1.263 0.324,-2.487 0.143,-3.673c-0.182,-1.186 -0.572,-2.256 -1.171,-3.21c-0.6,-0.954 -1.411,-1.779 -2.435,-2.473c-1.023,-0.695 -2.236,-1.195 -3.639,-1.503l-1.893,-0.414l-3.888,17.754Zm-2.829,-26.544l12.201,2.672c2.16,0.473 4.091,1.351 5.794,2.635c1.703,1.285 3.104,2.804 4.205,4.559c1.1,1.754 1.846,3.681 2.239,5.781c0.392,2.099 0.358,4.201 -0.102,6.304c-0.455,2.076 -1.292,3.987 -2.512,5.733c-1.22,1.746 -2.698,3.194 -4.434,4.342c-1.736,1.148 -3.646,1.95 -5.729,2.405c-2.084,0.455 -4.22,0.443 -6.408,-0.036l-12.201,-2.672l6.947,-31.723Z" style="fill-rule:nonzero;"/><path d="M359.352,340.525c0.222,1.273 0.668,2.405 1.337,3.396c0.669,0.99 1.483,1.81 2.441,2.458c0.959,0.649 2.021,1.097 3.187,1.345c1.166,0.248 2.357,0.265 3.573,0.052c1.216,-0.212 2.33,-0.633 3.342,-1.262c1.013,-0.629 1.867,-1.413 2.562,-2.35c0.696,-0.938 1.19,-1.987 1.483,-3.146c0.293,-1.159 0.328,-2.374 0.105,-3.647c-0.222,-1.273 -0.668,-2.405 -1.337,-3.395c-0.669,-0.991 -1.49,-1.809 -2.463,-2.455c-0.973,-0.646 -2.042,-1.093 -3.207,-1.341c-1.166,-0.248 -2.357,-0.265 -3.573,-0.053c-1.216,0.213 -2.33,0.634 -3.343,1.263c-1.012,0.629 -1.859,1.411 -2.54,2.347c-0.682,0.935 -1.169,1.982 -1.462,3.141c-0.293,1.159 -0.328,2.375 -0.105,3.647Zm-8.697,1.522c-0.416,-2.376 -0.365,-4.666 0.153,-6.87c0.518,-2.203 1.421,-4.205 2.71,-6.005c1.288,-1.799 2.939,-3.319 4.951,-4.561c2.013,-1.241 4.321,-2.089 6.923,-2.544c2.573,-0.451 5.025,-0.435 7.353,0.047c2.329,0.481 4.412,1.348 6.249,2.601c1.837,1.253 3.373,2.828 4.609,4.725c1.235,1.897 2.061,4.033 2.477,6.409c0.415,2.376 0.364,4.666 -0.154,6.87c-0.518,2.204 -1.428,4.207 -2.731,6.009c-1.302,1.802 -2.967,3.324 -4.994,4.568c-2.027,1.244 -4.327,2.091 -6.901,2.541c-2.602,0.455 -5.06,0.441 -7.375,-0.043c-2.315,-0.484 -4.383,-1.354 -6.206,-2.609c-1.823,-1.255 -3.352,-2.831 -4.588,-4.728c-1.235,-1.898 -2.061,-4.034 -2.476,-6.41Z" style="fill-rule:nonzero;"/><path d="M398.903,328.282l2.755,21.533l9.624,-19.87l6.659,0.895l4.036,21.706l8.343,-20.042l8.75,1.176l-13.93,30.894l-8.537,-1.147l-3.81,-19.503l-8.825,17.805l-8.537,-1.148l-5.278,-33.475l8.75,1.176Z" style="fill-rule:nonzero;"/></g></svg>