<?xml version="1.0" encoding="UTF-8" standalone="no"?>
<!DOCTYPE svg PUBLIC "-//W3C//DTD SVG 1.1//EN" "http://www.w3.org/Graphics/SVG/1.1/DTD/svg11.dtd">
<svg width="100%" height="100%" viewBox="0 0 466 463" version="1.1" xmlns="http://www.w3.org/2000/svg" xmlns:xlink="http://www.w3.org/1999/xlink" xml:space="preserve" xmlns:serif="http://www.serif.com/" style="fill-rule:evenodd;clip-rule:evenodd;stroke-linejoin:round;stroke-miterlimit:1.41421;">
    <g transform="matrix(1,0,0,1,-70,-76)">
        <g transform="matrix(0.458078,0,0,0.458078,-6.17445,224.958)">
            <circle cx="673" cy="181" r="484" style="fill:white;"/>
        </g>
        <g transform="matrix(1.07674,0,0,1.07674,63.8509,194.242)">
            <g transform="matrix(0.985363,-0.170467,0.170467,0.985363,-10.2617,18.8732)">
                <path d="M96.274,69.193C96.274,70.393 96.5,71.5 96.954,72.513C97.407,73.527 98.02,74.407 98.794,75.153C99.567,75.9 100.467,76.48 101.494,76.893C102.52,77.307 103.607,77.513 104.754,77.513C105.9,77.513 106.987,77.307 108.014,76.893C109.04,76.48 109.947,75.9 110.734,75.153C111.52,74.407 112.14,73.527 112.594,72.513C113.047,71.5 113.274,70.393 113.274,69.193C113.274,67.993 113.047,66.887 112.594,65.873C112.14,64.86 111.52,63.98 110.734,63.233C109.947,62.487 109.04,61.907 108.014,61.493C106.987,61.08 105.9,60.873 104.754,60.873C103.607,60.873 102.52,61.08 101.494,61.493C100.467,61.907 99.567,62.487 98.794,63.233C98.02,63.98 97.407,64.86 96.954,65.873C96.5,66.887 96.274,67.993 96.274,69.193ZM88.074,69.193C88.074,66.953 88.487,64.867 89.314,62.933C90.14,61 91.287,59.313 92.754,57.873C94.22,56.433 95.974,55.307 98.014,54.493C100.054,53.68 102.3,53.273 104.754,53.273C107.18,53.273 109.42,53.68 111.474,54.493C113.527,55.307 115.294,56.433 116.774,57.873C118.254,59.313 119.407,61 120.234,62.933C121.06,64.867 121.474,66.953 121.474,69.193C121.474,71.433 121.06,73.52 120.234,75.453C119.407,77.387 118.254,79.073 116.774,80.513C115.294,81.953 113.527,83.08 111.474,83.893C109.42,84.707 107.18,85.113 104.754,85.113C102.3,85.113 100.054,84.707 98.014,83.893C95.974,83.08 94.22,81.953 92.754,80.513C91.287,79.073 90.14,77.387 89.314,75.453C88.487,73.52 88.074,71.433 88.074,69.193Z" style="fill-rule:nonzero;"/>
            </g>
            <g transform="matrix(0.98707,0.160291,-0.160291,0.98707,12.9207,-12.7855)">
                <path d="M126.434,84.273L126.434,54.113L134.274,54.113L148.754,72.553L148.754,54.113L156.554,54.113L156.554,84.273L148.754,84.273L134.274,65.833L134.274,84.273L126.434,84.273Z" style="fill-rule:nonzero;"/>
            </g>
            <g transform="matrix(0.998454,-0.0555826,0.0555826,0.998454,-3.57781,9.74797)">
                <path d="M184.994,64.193C183.18,61.98 180.94,60.873 178.274,60.873C177.1,60.873 176.014,61.087 175.014,61.513C174.014,61.94 173.154,62.52 172.434,63.253C171.714,63.987 171.147,64.86 170.734,65.873C170.32,66.887 170.114,67.98 170.114,69.153C170.114,70.353 170.32,71.46 170.734,72.473C171.147,73.487 171.72,74.367 172.454,75.113C173.187,75.86 174.047,76.447 175.034,76.873C176.02,77.3 177.087,77.513 178.234,77.513C180.74,77.513 182.994,76.447 184.994,74.313L184.994,83.593L184.194,83.873C182.994,84.3 181.874,84.613 180.834,84.813C179.794,85.013 178.767,85.113 177.754,85.113C175.674,85.113 173.68,84.72 171.774,83.933C169.867,83.147 168.187,82.04 166.734,80.613C165.28,79.187 164.114,77.493 163.234,75.533C162.354,73.573 161.914,71.433 161.914,69.113C161.914,66.793 162.347,64.667 163.214,62.733C164.08,60.8 165.24,59.133 166.694,57.733C168.147,56.333 169.834,55.24 171.754,54.453C173.674,53.667 175.687,53.273 177.794,53.273C178.994,53.273 180.174,53.4 181.334,53.653C182.494,53.907 183.714,54.3 184.994,54.833L184.994,64.193Z" style="fill-rule:nonzero;"/>
            </g>
            <g transform="matrix(0.990895,-0.134635,0.134635,0.990895,-4.50824,36.3595)">
                <path d="M207.114,60.753L197.794,60.753L197.794,65.793L206.594,65.793L206.594,72.433L197.794,72.433L197.794,77.633L207.114,77.633L207.114,84.273L189.954,84.273L189.954,54.113L207.114,54.113L207.114,60.753Z" style="fill-rule:nonzero;"/>
            </g>
            <g transform="matrix(0.989554,-0.144162,0.144162,0.989554,-7.53388,35.253)">
                <path d="M234.194,54.113L234.194,70.513C234.194,71.393 234.227,72.293 234.294,73.213C234.36,74.133 234.56,74.967 234.894,75.713C235.227,76.46 235.754,77.067 236.474,77.533C237.194,78 238.207,78.233 239.514,78.233C240.82,78.233 241.827,78 242.534,77.533C243.24,77.067 243.767,76.46 244.114,75.713C244.46,74.967 244.667,74.133 244.734,73.213C244.8,72.293 244.834,71.393 244.834,70.513L244.834,54.113L252.634,54.113L252.634,71.593C252.634,76.287 251.56,79.713 249.414,81.873C247.267,84.033 243.967,85.113 239.514,85.113C235.06,85.113 231.754,84.033 229.594,81.873C227.434,79.713 226.354,76.287 226.354,71.593L226.354,54.113L234.194,54.113Z" style="fill-rule:nonzero;"/>
            </g>
            <g transform="matrix(0.989134,0.147015,-0.147015,0.989134,13.1109,-29.0059)">
                <path d="M266.794,67.953L269.394,67.953C272.274,67.953 273.714,66.7 273.714,64.193C273.714,61.687 272.274,60.433 269.394,60.433L266.794,60.433L266.794,67.953ZM266.794,84.273L258.954,84.273L258.954,54.113L271.434,54.113C274.82,54.113 277.414,54.993 279.214,56.753C281.014,58.513 281.914,60.993 281.914,64.193C281.914,67.393 281.014,69.873 279.214,71.633C277.414,73.393 274.82,74.273 271.434,74.273L266.794,74.273L266.794,84.273Z" style="fill-rule:nonzero;"/>
            </g>
            <g transform="matrix(0.976333,-0.216274,0.216274,0.976333,-7.8311,66.8256)">
                <path d="M292.914,69.193C292.914,70.393 293.14,71.5 293.594,72.513C294.047,73.527 294.66,74.407 295.434,75.153C296.207,75.9 297.107,76.48 298.134,76.893C299.16,77.307 300.247,77.513 301.394,77.513C302.54,77.513 303.627,77.307 304.654,76.893C305.68,76.48 306.587,75.9 307.374,75.153C308.16,74.407 308.78,73.527 309.234,72.513C309.687,71.5 309.914,70.393 309.914,69.193C309.914,67.993 309.687,66.887 309.234,65.873C308.78,64.86 308.16,63.98 307.374,63.233C306.587,62.487 305.68,61.907 304.654,61.493C303.627,61.08 302.54,60.873 301.394,60.873C300.247,60.873 299.16,61.08 298.134,61.493C297.107,61.907 296.207,62.487 295.434,63.233C294.66,63.98 294.047,64.86 293.594,65.873C293.14,66.887 292.914,67.993 292.914,69.193ZM284.714,69.193C284.714,66.953 285.127,64.867 285.954,62.933C286.78,61 287.927,59.313 289.394,57.873C290.86,56.433 292.614,55.307 294.654,54.493C296.694,53.68 298.94,53.273 301.394,53.273C303.82,53.273 306.06,53.68 308.114,54.493C310.167,55.307 311.934,56.433 313.414,57.873C314.894,59.313 316.047,61 316.874,62.933C317.7,64.867 318.114,66.953 318.114,69.193C318.114,71.433 317.7,73.52 316.874,75.453C316.047,77.387 314.894,79.073 313.414,80.513C311.934,81.953 310.167,83.08 308.114,83.893C306.06,84.707 303.82,85.113 301.394,85.113C298.94,85.113 296.694,84.707 294.654,83.893C292.614,83.08 290.86,81.953 289.394,80.513C287.927,79.073 286.78,77.387 285.954,75.453C285.127,73.52 284.714,71.433 284.714,69.193Z" style="fill-rule:nonzero;"/>
            </g>
            <g transform="matrix(0.995905,0.0904011,-0.0904011,0.995905,7.63967,-20.2843)">
                <path d="M323.074,84.273L323.074,54.113L330.914,54.113L345.394,72.553L345.394,54.113L353.194,54.113L353.194,84.273L345.394,84.273L330.914,65.833L330.914,84.273L323.074,84.273Z" style="fill-rule:nonzero;"/>
            </g>
            <g transform="matrix(0.998015,0.0629697,-0.0629697,0.998015,7.1737,24.1669)">
                <path d="M115.514,114.273L111.994,104.233L108.474,114.273L115.514,114.273ZM117.594,120.233L106.394,120.233L104.594,125.473L96.234,125.473L107.714,95.313L116.274,95.313L127.754,125.473L119.394,125.473L117.594,120.233Z" style="fill-rule:nonzero;"/>
            </g>
            <g transform="matrix(0.974598,-0.223961,0.223961,0.974598,-20.7974,61.4227)">
                <path d="M161.354,103.033C160.5,102.34 159.647,101.827 158.794,101.493C157.94,101.16 157.114,100.993 156.314,100.993C155.3,100.993 154.474,101.233 153.834,101.713C153.194,102.193 152.874,102.82 152.874,103.593C152.874,104.127 153.034,104.567 153.354,104.913C153.674,105.26 154.094,105.56 154.614,105.813C155.134,106.067 155.72,106.287 156.374,106.473C157.027,106.66 157.674,106.86 158.314,107.073C160.874,107.927 162.747,109.067 163.934,110.493C165.12,111.92 165.714,113.78 165.714,116.073C165.714,117.62 165.454,119.02 164.934,120.273C164.414,121.527 163.654,122.6 162.654,123.493C161.654,124.387 160.427,125.08 158.974,125.573C157.52,126.067 155.874,126.313 154.034,126.313C150.22,126.313 146.687,125.18 143.434,122.913L146.794,116.593C147.967,117.633 149.127,118.407 150.274,118.913C151.42,119.42 152.554,119.673 153.674,119.673C154.954,119.673 155.907,119.38 156.534,118.793C157.16,118.207 157.474,117.54 157.474,116.793C157.474,116.34 157.394,115.947 157.234,115.613C157.074,115.28 156.807,114.973 156.434,114.693C156.06,114.413 155.574,114.153 154.974,113.913C154.374,113.673 153.647,113.407 152.794,113.113C151.78,112.793 150.787,112.44 149.814,112.053C148.84,111.667 147.974,111.153 147.214,110.513C146.454,109.873 145.84,109.067 145.374,108.093C144.907,107.12 144.674,105.887 144.674,104.393C144.674,102.9 144.92,101.547 145.414,100.333C145.907,99.12 146.6,98.08 147.494,97.213C148.387,96.347 149.48,95.673 150.774,95.193C152.067,94.713 153.514,94.473 155.114,94.473C156.607,94.473 158.167,94.68 159.794,95.093C161.42,95.507 162.98,96.113 164.474,96.913L161.354,103.033Z" style="fill-rule:nonzero;"/>
            </g>
            <g transform="matrix(0.98328,0.182101,-0.182101,0.98328,23.1816,-0.68518)">
                <path d="M178.474,106.953L189.794,106.953L189.794,95.313L197.634,95.313L197.634,125.473L189.794,125.473L189.794,113.033L178.474,113.033L178.474,125.473L170.634,125.473L170.634,95.313L178.474,95.313L178.474,106.953Z" style="fill-rule:nonzero;"/>
            </g>
            <g transform="matrix(0.995205,-0.0978159,0.0978159,0.995205,-9.75841,45.7392)">
                <path d="M220.354,114.273L216.834,104.233L213.314,114.273L220.354,114.273ZM222.434,120.233L211.234,120.233L209.434,125.473L201.074,125.473L212.554,95.313L221.114,95.313L232.594,125.473L224.234,125.473L222.434,120.233Z" style="fill-rule:nonzero;"/>
            </g>
            <g transform="matrix(0.976852,0.213915,-0.213915,0.976852,29.3845,-19.7638)">
                <path d="M243.874,118.833L245.674,118.833C247.034,118.833 248.247,118.62 249.314,118.193C250.38,117.767 251.28,117.18 252.014,116.433C252.747,115.687 253.307,114.8 253.694,113.773C254.08,112.747 254.274,111.62 254.274,110.393C254.274,109.193 254.074,108.073 253.674,107.033C253.274,105.993 252.707,105.1 251.974,104.353C251.24,103.607 250.34,103.02 249.274,102.593C248.207,102.167 247.007,101.953 245.674,101.953L243.874,101.953L243.874,118.833ZM236.034,95.313L247.634,95.313C249.687,95.313 251.614,95.727 253.414,96.553C255.214,97.38 256.787,98.48 258.134,99.853C259.48,101.227 260.54,102.827 261.314,104.653C262.087,106.48 262.474,108.393 262.474,110.393C262.474,112.367 262.094,114.267 261.334,116.093C260.574,117.92 259.52,119.527 258.174,120.913C256.827,122.3 255.254,123.407 253.454,124.233C251.654,125.06 249.714,125.473 247.634,125.473L236.034,125.473L236.034,95.313Z" style="fill-rule:nonzero;"/>
            </g>
            <g transform="matrix(0.985038,-0.17234,0.17234,0.985038,-14.7936,74.3918)">
                <path d="M274.314,110.393C274.314,111.593 274.54,112.7 274.994,113.713C275.447,114.727 276.06,115.607 276.834,116.353C277.607,117.1 278.507,117.68 279.534,118.093C280.56,118.507 281.647,118.713 282.794,118.713C283.94,118.713 285.027,118.507 286.054,118.093C287.08,117.68 287.987,117.1 288.774,116.353C289.56,115.607 290.18,114.727 290.634,113.713C291.087,112.7 291.314,111.593 291.314,110.393C291.314,109.193 291.087,108.087 290.634,107.073C290.18,106.06 289.56,105.18 288.774,104.433C287.987,103.687 287.08,103.107 286.054,102.693C285.027,102.28 283.94,102.073 282.794,102.073C281.647,102.073 280.56,102.28 279.534,102.693C278.507,103.107 277.607,103.687 276.834,104.433C276.06,105.18 275.447,106.06 274.994,107.073C274.54,108.087 274.314,109.193 274.314,110.393ZM266.114,110.393C266.114,108.153 266.527,106.067 267.354,104.133C268.18,102.2 269.327,100.513 270.794,99.073C272.26,97.633 274.014,96.507 276.054,95.693C278.094,94.88 280.34,94.473 282.794,94.473C285.22,94.473 287.46,94.88 289.514,95.693C291.567,96.507 293.334,97.633 294.814,99.073C296.294,100.513 297.447,102.2 298.274,104.133C299.1,106.067 299.514,108.153 299.514,110.393C299.514,112.633 299.1,114.72 298.274,116.653C297.447,118.587 296.294,120.273 294.814,121.713C293.334,123.153 291.567,124.28 289.514,125.093C287.46,125.907 285.22,126.313 282.794,126.313C280.34,126.313 278.094,125.907 276.054,125.093C274.014,124.28 272.26,123.153 270.794,121.713C269.327,120.273 268.18,118.587 267.354,116.653C266.527,114.72 266.114,112.633 266.114,110.393Z" style="fill-rule:nonzero;"/>
            </g>
            <g transform="matrix(0.991089,0.133203,-0.133203,0.991089,17.5898,-11.1413)">
                <path d="M309.034,95.313L314.234,114.793L320.634,95.313L326.874,95.313L333.274,114.793L338.474,95.313L346.674,95.313L337.674,125.473L329.674,125.473L323.754,107.993L317.834,125.473L309.834,125.473L300.834,95.313L309.034,95.313Z" style="fill-rule:nonzero;"/>
            </g>
            <g transform="matrix(0.998015,0.0629697,-0.0629697,0.998015,7.1737,24.1669)">
                <path d="M115.514,114.273L111.994,104.233L108.474,114.273L115.514,114.273ZM117.594,120.233L106.394,120.233L104.594,125.473L96.234,125.473L107.714,95.313L116.274,95.313L127.754,125.473L119.394,125.473L117.594,120.233Z" style="fill-rule:nonzero;"/>
            </g>
            <g transform="matrix(0.974598,-0.223961,0.223961,0.974598,-20.7974,61.4227)">
                <path d="M161.354,103.033C160.5,102.34 159.647,101.827 158.794,101.493C157.94,101.16 157.114,100.993 156.314,100.993C155.3,100.993 154.474,101.233 153.834,101.713C153.194,102.193 152.874,102.82 152.874,103.593C152.874,104.127 153.034,104.567 153.354,104.913C153.674,105.26 154.094,105.56 154.614,105.813C155.134,106.067 155.72,106.287 156.374,106.473C157.027,106.66 157.674,106.86 158.314,107.073C160.874,107.927 162.747,109.067 163.934,110.493C165.12,111.92 165.714,113.78 165.714,116.073C165.714,117.62 165.454,119.02 164.934,120.273C164.414,121.527 163.654,122.6 162.654,123.493C161.654,124.387 160.427,125.08 158.974,125.573C157.52,126.067 155.874,126.313 154.034,126.313C150.22,126.313 146.687,125.18 143.434,122.913L146.794,116.593C147.967,117.633 149.127,118.407 150.274,118.913C151.42,119.42 152.554,119.673 153.674,119.673C154.954,119.673 155.907,119.38 156.534,118.793C157.16,118.207 157.474,117.54 157.474,116.793C157.474,116.34 157.394,115.947 157.234,115.613C157.074,115.28 156.807,114.973 156.434,114.693C156.06,114.413 155.574,114.153 154.974,113.913C154.374,113.673 153.647,113.407 152.794,113.113C151.78,112.793 150.787,112.44 149.814,112.053C148.84,111.667 147.974,111.153 147.214,110.513C146.454,109.873 145.84,109.067 145.374,108.093C144.907,107.12 144.674,105.887 144.674,104.393C144.674,102.9 144.92,101.547 145.414,100.333C145.907,99.12 146.6,98.08 147.494,97.213C148.387,96.347 149.48,95.673 150.774,95.193C152.067,94.713 153.514,94.473 155.114,94.473C156.607,94.473 158.167,94.68 159.794,95.093C161.42,95.507 162.98,96.113 164.474,96.913L161.354,103.033Z" style="fill-rule:nonzero;"/>
            </g>
            <g transform="matrix(0.98328,0.182101,-0.182101,0.98328,23.1816,-0.68518)">
                <path d="M178.474,106.953L189.794,106.953L189.794,95.313L197.634,95.313L197.634,125.473L189.794,125.473L189.794,113.033L178.474,113.033L178.474,125.473L170.634,125.473L170.634,95.313L178.474,95.313L178.474,106.953Z" style="fill-rule:nonzero;"/>
            </g>
            <g transform="matrix(0.995205,-0.0978159,0.0978159,0.995205,-9.75841,45.7392)">
                <path d="M220.354,114.273L216.834,104.233L213.314,114.273L220.354,114.273ZM222.434,120.233L211.234,120.233L209.434,125.473L201.074,125.473L212.554,95.313L221.114,95.313L232.594,125.473L224.234,125.473L222.434,120.233Z" style="fill-rule:nonzero;"/>
            </g>
            <g transform="matrix(0.976852,0.213915,-0.213915,0.976852,29.3845,-19.7638)">
                <path d="M243.874,118.833L245.674,118.833C247.034,118.833 248.247,118.62 249.314,118.193C250.38,117.767 251.28,117.18 252.014,116.433C252.747,115.687 253.307,114.8 253.694,113.773C254.08,112.747 254.274,111.62 254.274,110.393C254.274,109.193 254.074,108.073 253.674,107.033C253.274,105.993 252.707,105.1 251.974,104.353C251.24,103.607 250.34,103.02 249.274,102.593C248.207,102.167 247.007,101.953 245.674,101.953L243.874,101.953L243.874,118.833ZM236.034,95.313L247.634,95.313C249.687,95.313 251.614,95.727 253.414,96.553C255.214,97.38 256.787,98.48 258.134,99.853C259.48,101.227 260.54,102.827 261.314,104.653C262.087,106.48 262.474,108.393 262.474,110.393C262.474,112.367 262.094,114.267 261.334,116.093C260.574,117.92 259.52,119.527 258.174,120.913C256.827,122.3 255.254,123.407 253.454,124.233C251.654,125.06 249.714,125.473 247.634,125.473L236.034,125.473L236.034,95.313Z" style="fill-rule:nonzero;"/>
            </g>
            <g transform="matrix(0.985038,-0.17234,0.17234,0.985038,-14.7936,74.3918)">
                <path d="M274.314,110.393C274.314,111.593 274.54,112.7 274.994,113.713C275.447,114.727 276.06,115.607 276.834,116.353C277.607,117.1 278.507,117.68 279.534,118.093C280.56,118.507 281.647,118.713 282.794,118.713C283.94,118.713 285.027,118.507 286.054,118.093C287.08,117.68 287.987,117.1 288.774,116.353C289.56,115.607 290.18,114.727 290.634,113.713C291.087,112.7 291.314,111.593 291.314,110.393C291.314,109.193 291.087,108.087 290.634,107.073C290.18,106.06 289.56,105.18 288.774,104.433C287.987,103.687 287.08,103.107 286.054,102.693C285.027,102.28 283.94,102.073 282.794,102.073C281.647,102.073 280.56,102.28 279.534,102.693C278.507,103.107 277.607,103.687 276.834,104.433C276.06,105.18 275.447,106.06 274.994,107.073C274.54,108.087 274.314,109.193 274.314,110.393ZM266.114,110.393C266.114,108.153 266.527,106.067 267.354,104.133C268.18,102.2 269.327,100.513 270.794,99.073C272.26,97.633 274.014,96.507 276.054,95.693C278.094,94.88 280.34,94.473 282.794,94.473C285.22,94.473 287.46,94.88 289.514,95.693C291.567,96.507 293.334,97.633 294.814,99.073C296.294,100.513 297.447,102.2 298.274,104.133C299.1,106.067 299.514,108.153 299.514,110.393C299.514,112.633 299.1,114.72 298.274,116.653C297.447,118.587 296.294,120.273 294.814,121.713C293.334,123.153 291.567,124.28 289.514,125.093C287.46,125.907 285.22,126.313 282.794,126.313C280.34,126.313 278.094,125.907 276.054,125.093C274.014,124.28 272.26,123.153 270.794,121.713C269.327,120.273 268.18,118.587 267.354,116.653C266.527,114.72 266.114,112.633 266.114,110.393Z" style="fill-rule:nonzero;"/>
            </g>
            <g transform="matrix(0.991089,0.133203,-0.133203,0.991089,17.5898,-11.1413)">
                <path d="M309.034,95.313L314.234,114.793L320.634,95.313L326.874,95.313L333.274,114.793L338.474,95.313L346.674,95.313L337.674,125.473L329.674,125.473L323.754,107.993L317.834,125.473L309.834,125.473L300.834,95.313L309.034,95.313Z" style="fill-rule:nonzero;"/>
            </g>
        </g>
    </g>
</svg>
