<?xml version="1.0" encoding="UTF-8" standalone="no"?><!DOCTYPE svg PUBLIC "-//W3C//DTD SVG 1.1//EN" "http://www.w3.org/Graphics/SVG/1.1/DTD/svg11.dtd"><svg width="100%" height="100%" viewBox="0 0 400 800" version="1.1" xmlns="http://www.w3.org/2000/svg" xmlns:xlink="http://www.w3.org/1999/xlink" xml:space="preserve" xmlns:serif="http://www.serif.com/" style="fill-rule:evenodd;clip-rule:evenodd;stroke-linejoin:round;stroke-miterlimit:1.41421;"><path d="M397.892,38.105c0,-20.447 -16.6,-37.048 -37.048,-37.048l-319.227,0c-20.447,0 -37.048,16.601 -37.048,37.048l0,724.346c0,20.448 16.601,37.049 37.048,37.049l319.227,0c20.448,0 37.048,-16.601 37.048,-37.049l0,-724.346Z" style="fill:#fff;"/><path d="M361.083,1.058l0.239,0.002l0.239,0.004l0.238,0.005l0.238,0.007l0.238,0.008l0.237,0.01l0.237,0.011l0.237,0.013l0.236,0.014l0.235,0.016l0.236,0.017l0.235,0.019l0.234,0.02l0.234,0.021l0.234,0.023l0.233,0.025l0.233,0.026l0.232,0.027l0.232,0.029l0.231,0.03l0.231,0.032l0.231,0.033l0.23,0.034l0.229,0.036l0.23,0.037l0.228,0.039l0.229,0.04l0.227,0.042l0.227,0.042l0.227,0.045l0.227,0.045l0.225,0.047l0.226,0.049l0.224,0.049l0.225,0.051l0.223,0.053l0.223,0.054l0.223,0.055l0.222,0.056l0.222,0.058l0.221,0.059l0.221,0.061l0.22,0.061l0.219,0.064l0.219,0.064l0.218,0.066l0.218,0.067l0.217,0.068l0.217,0.07l0.216,0.071l0.215,0.072l0.215,0.073l0.214,0.075l0.214,0.076l0.213,0.078l0.212,0.078l0.212,0.08l0.211,0.081l0.211,0.083l0.21,0.083l0.209,0.085l0.209,0.086l0.208,0.087l0.207,0.089l0.207,0.09l0.206,0.091l0.206,0.092l0.205,0.093l0.204,0.095l0.203,0.096l0.203,0.097l0.202,0.098l0.201,0.099l0.201,0.101l0.2,0.102l0.2,0.103l0.198,0.104l0.198,0.105l0.197,0.106l0.197,0.108l0.196,0.109l0.195,0.109l0.194,0.111l0.194,0.113l0.192,0.113l0.192,0.114l0.192,0.116l0.19,0.116l0.19,0.118l0.189,0.119l0.189,0.12l0.187,0.121l0.187,0.122l0.186,0.124l0.185,0.124l0.184,0.125l0.184,0.127l0.183,0.127l0.182,0.129l0.181,0.13l0.18,0.131l0.18,0.131l0.179,0.133l0.178,0.134l0.177,0.135l0.176,0.136l0.175,0.137l0.175,0.138l0.174,0.139l0.172,0.14l0.172,0.141l0.172,0.143l0.17,0.143l0.169,0.144l0.169,0.145l0.167,0.146l0.167,0.147l0.166,0.148l0.165,0.149l0.164,0.15l0.163,0.151l0.163,0.152l0.161,0.153l0.16,0.154l0.16,0.155l0.158,0.156l0.158,0.156l0.157,0.158l0.155,0.159l0.155,0.159l0.154,0.161l0.153,0.161l0.152,0.162l0.151,0.163l0.15,0.164l0.149,0.165l0.148,0.166l0.147,0.167l0.146,0.168l0.146,0.168l0.144,0.169l0.143,0.171l0.142,0.171l0.141,0.172l0.14,0.173l0.139,0.173l0.138,0.175l0.137,0.175l0.136,0.177l0.135,0.177l0.134,0.178l0.133,0.178l0.132,0.18l0.131,0.18l0.129,0.182l0.129,0.182l0.128,0.182l0.126,0.184l0.125,0.184l0.125,0.186l0.123,0.186l0.122,0.186l0.121,0.188l0.12,0.188l0.119,0.189l0.118,0.19l0.117,0.191l0.115,0.191l0.114,0.192l0.114,0.193l0.112,0.193l0.111,0.195l0.11,0.195l0.109,0.196l0.107,0.196l0.106,0.197l0.106,0.198l0.104,0.199l0.103,0.199l0.102,0.2l0.1,0.201l0.099,0.201l0.099,0.202l0.097,0.203l0.095,0.204l0.095,0.204l0.094,0.205l0.092,0.205l0.091,0.206l0.089,0.207l0.089,0.207l0.087,0.208l0.086,0.209l0.085,0.209l0.084,0.21l0.082,0.211l0.081,0.211l0.08,0.212l0.079,0.212l0.077,0.214l0.076,0.213l0.075,0.214l0.073,0.215l0.073,0.216l0.071,0.216l0.069,0.216l0.069,0.217l0.067,0.218l0.065,0.219l0.065,0.218l0.063,0.22l0.062,0.22l0.06,0.22l0.059,0.221l0.058,0.222l0.057,0.222l0.055,0.223l0.054,0.223l0.052,0.224l0.051,0.224l0.05,0.225l0.048,0.225l0.047,0.226l0.046,0.226l0.044,0.227l0.043,0.227l0.041,0.228l0.04,0.228l0.039,0.229l0.037,0.229l0.036,0.23l0.035,0.23l0.033,0.23l0.031,0.231l0.031,0.232l0.028,0.231l0.028,0.233l0.026,0.233l0.024,0.233l0.023,0.233l0.022,0.234l0.02,0.235l0.018,0.235l0.017,0.235l0.016,0.236l0.014,0.236l0.013,0.236l0.011,0.237l0.01,0.237l0.008,0.238l0.007,0.238l0.006,0.238l0.003,0.239l0.003,0.239l0,0.239l0,724.346l0,0.239l-0.003,0.24l-0.003,0.238l-0.006,0.239l-0.007,0.238l-0.008,0.237l-0.01,0.237l-0.011,0.237l-0.013,0.237l-0.014,0.236l-0.016,0.236l-0.017,0.235l-0.018,0.235l-0.02,0.234l-0.022,0.234l-0.023,0.234l-0.024,0.233l-0.026,0.233l-0.028,0.232l-0.028,0.232l-0.031,0.231l-0.031,0.231l-0.033,0.231l-0.035,0.23l-0.036,0.23l-0.037,0.229l-0.039,0.228l-0.04,0.229l-0.041,0.227l-0.043,0.228l-0.044,0.226l-0.046,0.227l-0.047,0.225l-0.048,0.226l-0.05,0.224l-0.051,0.225l-0.052,0.223l-0.054,0.224l-0.055,0.222l-0.057,0.222l-0.058,0.222l-0.059,0.221l-0.06,0.221l-0.062,0.22l-0.063,0.219l-0.065,0.219l-0.065,0.218l-0.067,0.218l-0.069,0.217l-0.069,0.217l-0.071,0.216l-0.073,0.215l-0.073,0.215l-0.075,0.214l-0.076,0.214l-0.077,0.213l-0.079,0.213l-0.08,0.211l-0.081,0.212l-0.082,0.21l-0.084,0.21l-0.085,0.209l-0.086,0.209l-0.087,0.208l-0.089,0.208l-0.089,0.206l-0.091,0.207l-0.092,0.205l-0.094,0.205l-0.095,0.204l-0.095,0.203l-0.097,0.203l-0.099,0.202l-0.099,0.202l-0.1,0.2l-0.102,0.2l-0.103,0.2l-0.104,0.198l-0.106,0.198l-0.106,0.197l-0.107,0.197l-0.109,0.196l-0.11,0.195l-0.111,0.194l-0.112,0.194l-0.114,0.193l-0.114,0.192l-0.115,0.191l-0.117,0.191l-0.118,0.189l-0.119,0.189l-0.12,0.189l-0.121,0.187l-0.122,0.187l-0.123,0.186l-0.125,0.185l-0.125,0.185l-0.126,0.183l-0.128,0.183l-0.129,0.182l-0.129,0.181l-0.131,0.181l-0.132,0.179l-0.133,0.179l-0.134,0.178l-0.135,0.177l-0.136,0.176l-0.137,0.176l-0.138,0.174l-0.139,0.174l-0.14,0.173l-0.141,0.172l-0.142,0.171l-0.143,0.17l-0.144,0.169l-0.146,0.169l-0.146,0.168l-0.147,0.166l-0.148,0.166l-0.149,0.165l-0.15,0.164l-0.151,0.163l-0.152,0.163l-0.153,0.161l-0.154,0.16l-0.155,0.16l-0.155,0.159l-0.157,0.157l-0.158,0.157l-0.158,0.156l-0.16,0.154l-0.16,0.154l-0.161,0.153l-0.163,0.152l-0.163,0.151l-0.164,0.15l-0.165,0.149l-0.166,0.148l-0.167,0.147l-0.167,0.147l-0.169,0.145l-0.169,0.144l-0.17,0.143l-0.172,0.142l-0.172,0.141l-0.172,0.14l-0.174,0.139l-0.175,0.138l-0.175,0.137l-0.176,0.136l-0.177,0.135l-0.178,0.134l-0.179,0.133l-0.18,0.132l-0.18,0.131l-0.181,0.129l-0.182,0.129l-0.183,0.128l-0.184,0.126l-0.184,0.126l-0.185,0.124l-0.186,0.123l-0.187,0.122l-0.187,0.121l-0.189,0.12l-0.189,0.119l-0.19,0.118l-0.19,0.117l-0.192,0.115l-0.192,0.115l-0.192,0.113l-0.194,0.112l-0.194,0.111l-0.195,0.11l-0.196,0.109l-0.197,0.107l-0.197,0.107l-0.198,0.105l-0.198,0.104l-0.2,0.103l-0.2,0.102l-0.201,0.1l-0.201,0.1l-0.202,0.098l-0.203,0.097l-0.203,0.096l-0.204,0.094l-0.205,0.094l-0.206,0.092l-0.206,0.091l-0.207,0.09l-0.207,0.088l-0.208,0.087l-0.209,0.087l-0.209,0.084l-0.21,0.084l-0.211,0.082l-0.211,0.081l-0.212,0.08l-0.212,0.079l-0.213,0.077l-0.214,0.076l-0.214,0.075l-0.215,0.074l-0.215,0.072l-0.216,0.071l-0.217,0.069l-0.217,0.069l-0.218,0.067l-0.218,0.066l-0.219,0.064l-0.219,0.063l-0.22,0.062l-0.221,0.06l-0.221,0.06l-0.222,0.057l-0.222,0.057l-0.223,0.055l-0.223,0.054l-0.223,0.052l-0.225,0.051l-0.224,0.05l-0.226,0.048l-0.225,0.047l-0.227,0.046l-0.227,0.044l-0.227,0.043l-0.227,0.041l-0.229,0.041l-0.228,0.038l-0.23,0.037l-0.229,0.036l-0.23,0.035l-0.231,0.033l-0.231,0.031l-0.231,0.031l-0.232,0.028l-0.232,0.028l-0.233,0.026l-0.233,0.024l-0.234,0.023l-0.234,0.022l-0.234,0.02l-0.235,0.018l-0.236,0.018l-0.235,0.015l-0.236,0.015l-0.237,0.012l-0.237,0.012l-0.237,0.009l-0.238,0.009l-0.238,0.006l-0.238,0.006l-0.239,0.004l-0.239,0.002l-0.239,0.001l-319.227,0l-0.239,-0.001l-0.239,-0.002l-0.239,-0.004l-0.238,-0.006l-0.238,-0.006l-0.238,-0.009l-0.237,-0.009l-0.237,-0.012l-0.236,-0.012l-0.236,-0.015l-0.236,-0.015l-0.235,-0.018l-0.235,-0.018l-0.235,-0.02l-0.234,-0.022l-0.233,-0.023l-0.234,-0.024l-0.232,-0.026l-0.233,-0.028l-0.232,-0.028l-0.231,-0.031l-0.231,-0.031l-0.231,-0.033l-0.23,-0.035l-0.229,-0.036l-0.229,-0.037l-0.229,-0.038l-0.228,-0.041l-0.228,-0.041l-0.227,-0.043l-0.227,-0.044l-0.226,-0.046l-0.226,-0.047l-0.225,-0.048l-0.225,-0.05l-0.224,-0.051l-0.224,-0.052l-0.223,-0.054l-0.223,-0.055l-0.222,-0.057l-0.222,-0.057l-0.221,-0.06l-0.22,-0.06l-0.22,-0.062l-0.22,-0.063l-0.219,-0.064l-0.218,-0.066l-0.218,-0.067l-0.217,-0.069l-0.216,-0.069l-0.216,-0.071l-0.216,-0.072l-0.215,-0.074l-0.214,-0.075l-0.214,-0.076l-0.213,-0.077l-0.212,-0.079l-0.212,-0.08l-0.211,-0.081l-0.211,-0.082l-0.21,-0.084l-0.209,-0.084l-0.209,-0.087l-0.208,-0.087l-0.207,-0.088l-0.207,-0.09l-0.206,-0.091l-0.206,-0.092l-0.204,-0.094l-0.204,-0.094l-0.204,-0.096l-0.203,-0.097l-0.202,-0.098l-0.201,-0.1l-0.201,-0.1l-0.2,-0.102l-0.199,-0.103l-0.199,-0.104l-0.198,-0.105l-0.197,-0.107l-0.197,-0.107l-0.195,-0.109l-0.195,-0.11l-0.195,-0.111l-0.193,-0.112l-0.193,-0.113l-0.192,-0.115l-0.192,-0.115l-0.19,-0.117l-0.19,-0.118l-0.189,-0.119l-0.188,-0.12l-0.188,-0.121l-0.187,-0.122l-0.186,-0.123l-0.185,-0.124l-0.184,-0.126l-0.184,-0.126l-0.183,-0.128l-0.182,-0.129l-0.181,-0.129l-0.18,-0.131l-0.18,-0.132l-0.178,-0.133l-0.178,-0.134l-0.177,-0.135l-0.177,-0.136l-0.175,-0.137l-0.175,-0.138l-0.173,-0.139l-0.173,-0.14l-0.172,-0.141l-0.171,-0.142l-0.171,-0.143l-0.169,-0.144l-0.169,-0.145l-0.167,-0.147l-0.167,-0.147l-0.166,-0.148l-0.165,-0.149l-0.164,-0.15l-0.163,-0.151l-0.162,-0.152l-0.162,-0.153l-0.16,-0.154l-0.16,-0.154l-0.158,-0.156l-0.158,-0.157l-0.156,-0.157l-0.156,-0.159l-0.155,-0.16l-0.154,-0.16l-0.153,-0.161l-0.152,-0.163l-0.151,-0.163l-0.15,-0.164l-0.149,-0.165l-0.148,-0.166l-0.147,-0.166l-0.146,-0.168l-0.145,-0.169l-0.144,-0.169l-0.144,-0.17l-0.142,-0.171l-0.141,-0.172l-0.14,-0.173l-0.139,-0.174l-0.138,-0.174l-0.137,-0.176l-0.136,-0.176l-0.135,-0.177l-0.134,-0.178l-0.133,-0.179l-0.132,-0.179l-0.13,-0.181l-0.13,-0.181l-0.129,-0.182l-0.127,-0.183l-0.127,-0.183l-0.125,-0.185l-0.125,-0.185l-0.123,-0.186l-0.122,-0.187l-0.121,-0.187l-0.12,-0.189l-0.119,-0.189l-0.118,-0.189l-0.116,-0.191l-0.116,-0.191l-0.114,-0.192l-0.114,-0.193l-0.112,-0.194l-0.111,-0.194l-0.11,-0.195l-0.108,-0.196l-0.108,-0.197l-0.106,-0.197l-0.106,-0.198l-0.104,-0.198l-0.103,-0.2l-0.101,-0.2l-0.101,-0.2l-0.099,-0.202l-0.098,-0.202l-0.097,-0.203l-0.096,-0.203l-0.095,-0.204l-0.093,-0.205l-0.092,-0.205l-0.091,-0.207l-0.09,-0.206l-0.089,-0.208l-0.087,-0.208l-0.086,-0.209l-0.085,-0.209l-0.084,-0.21l-0.082,-0.21l-0.081,-0.212l-0.08,-0.211l-0.079,-0.213l-0.077,-0.213l-0.076,-0.214l-0.075,-0.214l-0.073,-0.215l-0.072,-0.215l-0.071,-0.216l-0.07,-0.217l-0.068,-0.217l-0.067,-0.218l-0.066,-0.218l-0.065,-0.219l-0.063,-0.219l-0.061,-0.22l-0.061,-0.221l-0.059,-0.221l-0.058,-0.222l-0.056,-0.222l-0.056,-0.222l-0.053,-0.224l-0.053,-0.223l-0.051,-0.225l-0.05,-0.224l-0.048,-0.226l-0.047,-0.225l-0.046,-0.227l-0.044,-0.226l-0.043,-0.228l-0.041,-0.227l-0.04,-0.229l-0.039,-0.228l-0.037,-0.229l-0.036,-0.23l-0.034,-0.23l-0.033,-0.231l-0.032,-0.231l-0.03,-0.231l-0.029,-0.232l-0.027,-0.232l-0.026,-0.233l-0.025,-0.233l-0.023,-0.234l-0.021,-0.234l-0.02,-0.234l-0.019,-0.235l-0.017,-0.235l-0.016,-0.236l-0.014,-0.236l-0.013,-0.237l-0.011,-0.237l-0.01,-0.237l-0.008,-0.237l-0.007,-0.238l-0.005,-0.239l-0.004,-0.238l-0.002,-0.24l-0.001,-0.239l0,-724.346l0.001,-0.239l0.002,-0.239l0.004,-0.239l0.005,-0.238l0.007,-0.238l0.008,-0.238l0.01,-0.237l0.011,-0.237l0.013,-0.236l0.014,-0.236l0.016,-0.236l0.017,-0.235l0.019,-0.235l0.02,-0.235l0.021,-0.234l0.023,-0.233l0.025,-0.233l0.026,-0.233l0.027,-0.233l0.029,-0.231l0.03,-0.232l0.032,-0.231l0.033,-0.23l0.034,-0.23l0.036,-0.23l0.037,-0.229l0.039,-0.229l0.04,-0.228l0.041,-0.228l0.043,-0.227l0.044,-0.227l0.046,-0.226l0.047,-0.226l0.048,-0.225l0.05,-0.225l0.051,-0.224l0.053,-0.224l0.053,-0.223l0.056,-0.223l0.056,-0.222l0.058,-0.222l0.059,-0.221l0.061,-0.22l0.061,-0.22l0.063,-0.22l0.065,-0.218l0.066,-0.219l0.067,-0.218l0.068,-0.217l0.07,-0.216l0.071,-0.216l0.072,-0.216l0.073,-0.215l0.075,-0.214l0.076,-0.213l0.077,-0.214l0.079,-0.212l0.08,-0.212l0.081,-0.211l0.082,-0.211l0.084,-0.21l0.085,-0.209l0.086,-0.209l0.087,-0.208l0.089,-0.207l0.09,-0.207l0.091,-0.206l0.092,-0.205l0.093,-0.205l0.095,-0.204l0.096,-0.204l0.097,-0.203l0.098,-0.202l0.099,-0.201l0.101,-0.201l0.101,-0.2l0.103,-0.199l0.104,-0.199l0.106,-0.198l0.106,-0.197l0.108,-0.196l0.108,-0.196l0.11,-0.195l0.111,-0.195l0.112,-0.193l0.114,-0.193l0.114,-0.192l0.116,-0.191l0.116,-0.191l0.118,-0.19l0.119,-0.189l0.12,-0.188l0.121,-0.188l0.122,-0.186l0.123,-0.186l0.125,-0.186l0.125,-0.184l0.127,-0.184l0.127,-0.182l0.129,-0.182l0.13,-0.182l0.13,-0.18l0.132,-0.18l0.133,-0.178l0.134,-0.178l0.135,-0.177l0.136,-0.177l0.137,-0.175l0.138,-0.175l0.139,-0.173l0.14,-0.173l0.141,-0.172l0.142,-0.171l0.144,-0.171l0.144,-0.169l0.145,-0.168l0.146,-0.168l0.147,-0.167l0.148,-0.166l0.149,-0.165l0.15,-0.164l0.151,-0.163l0.152,-0.162l0.153,-0.161l0.154,-0.161l0.155,-0.159l0.156,-0.159l0.156,-0.158l0.158,-0.156l0.158,-0.156l0.16,-0.155l0.16,-0.154l0.162,-0.153l0.162,-0.152l0.163,-0.151l0.164,-0.15l0.165,-0.149l0.166,-0.148l0.167,-0.147l0.167,-0.146l0.169,-0.145l0.169,-0.144l0.171,-0.143l0.171,-0.143l0.172,-0.141l0.173,-0.14l0.173,-0.139l0.175,-0.138l0.175,-0.137l0.177,-0.136l0.177,-0.135l0.178,-0.134l0.178,-0.133l0.18,-0.131l0.18,-0.131l0.181,-0.13l0.182,-0.129l0.183,-0.127l0.184,-0.127l0.184,-0.125l0.185,-0.124l0.186,-0.124l0.187,-0.122l0.188,-0.121l0.188,-0.12l0.189,-0.119l0.19,-0.118l0.19,-0.116l0.192,-0.116l0.192,-0.114l0.193,-0.113l0.193,-0.113l0.195,-0.111l0.195,-0.109l0.195,-0.109l0.197,-0.108l0.197,-0.106l0.198,-0.105l0.199,-0.104l0.199,-0.103l0.2,-0.102l0.201,-0.101l0.201,-0.099l0.202,-0.098l0.203,-0.097l0.204,-0.096l0.204,-0.095l0.204,-0.093l0.206,-0.092l0.206,-0.091l0.207,-0.09l0.207,-0.089l0.208,-0.087l0.209,-0.086l0.209,-0.085l0.21,-0.083l0.211,-0.083l0.211,-0.081l0.212,-0.08l0.212,-0.078l0.213,-0.078l0.214,-0.076l0.214,-0.075l0.215,-0.073l0.216,-0.072l0.216,-0.071l0.216,-0.07l0.217,-0.068l0.218,-0.067l0.218,-0.066l0.219,-0.064l0.22,-0.064l0.22,-0.061l0.22,-0.061l0.221,-0.059l0.222,-0.058l0.222,-0.056l0.223,-0.055l0.223,-0.054l0.224,-0.053l0.224,-0.051l0.225,-0.049l0.225,-0.049l0.226,-0.047l0.226,-0.045l0.227,-0.045l0.227,-0.042l0.228,-0.042l0.228,-0.04l0.229,-0.039l0.229,-0.037l0.229,-0.036l0.23,-0.034l0.231,-0.033l0.231,-0.032l0.231,-0.03l0.232,-0.029l0.233,-0.027l0.232,-0.026l0.234,-0.025l0.233,-0.023l0.234,-0.021l0.235,-0.02l0.235,-0.019l0.235,-0.017l0.236,-0.016l0.236,-0.014l0.236,-0.013l0.237,-0.011l0.237,-0.01l0.238,-0.008l0.238,-0.007l0.238,-0.005l0.239,-0.004l0.239,-0.002l0.239,-0.001l319.227,0l0.239,0.001Zm-319.462,1.999l-0.23,0.001l-0.227,0.002l-0.226,0.003l-0.226,0.005l-0.225,0.007l-0.225,0.008l-0.224,0.009l-0.225,0.011l-0.223,0.012l-0.224,0.013l-0.223,0.015l-0.222,0.016l-0.223,0.018l-0.222,0.019l-0.221,0.02l-0.221,0.022l-0.221,0.023l-0.22,0.025l-0.22,0.026l-0.219,0.027l-0.219,0.028l-0.218,0.03l-0.219,0.032l-0.217,0.032l-0.217,0.034l-0.217,0.035l-0.216,0.037l-0.216,0.038l-0.216,0.039l-0.214,0.041l-0.215,0.041l-0.214,0.044l-0.213,0.044l-0.213,0.046l-0.213,0.047l-0.212,0.048l-0.212,0.05l-0.211,0.05l-0.21,0.053l-0.21,0.053l-0.21,0.055l-0.209,0.056l-0.208,0.057l-0.208,0.058l-0.208,0.06l-0.207,0.061l-0.206,0.062l-0.206,0.063l-0.206,0.065l-0.204,0.066l-0.205,0.067l-0.203,0.068l-0.203,0.07l-0.203,0.07l-0.202,0.072l-0.202,0.074l-0.2,0.074l-0.201,0.075l-0.199,0.077l-0.2,0.078l-0.198,0.079l-0.198,0.08l-0.197,0.082l-0.197,0.082l-0.196,0.084l-0.196,0.085l-0.195,0.086l-0.194,0.087l-0.194,0.088l-0.193,0.09l-0.192,0.09l-0.192,0.092l-0.191,0.093l-0.191,0.094l-0.19,0.095l-0.189,0.096l-0.188,0.098l-0.188,0.098l-0.187,0.1l-0.187,0.101l-0.186,0.101l-0.185,0.103l-0.185,0.104l-0.183,0.105l-0.184,0.106l-0.182,0.107l-0.182,0.109l-0.181,0.109l-0.18,0.11l-0.18,0.112l-0.178,0.112l-0.179,0.114l-0.177,0.114l-0.177,0.116l-0.176,0.116l-0.175,0.118l-0.174,0.119l-0.174,0.119l-0.173,0.121l-0.172,0.122l-0.172,0.123l-0.17,0.123l-0.17,0.125l-0.169,0.126l-0.169,0.126l-0.167,0.128l-0.167,0.129l-0.166,0.13l-0.165,0.13l-0.165,0.132l-0.163,0.132l-0.163,0.134l-0.162,0.134l-0.161,0.136l-0.16,0.136l-0.16,0.138l-0.159,0.138l-0.157,0.139l-0.157,0.14l-0.157,0.141l-0.155,0.142l-0.154,0.143l-0.154,0.144l-0.152,0.145l-0.152,0.145l-0.151,0.147l-0.15,0.147l-0.15,0.149l-0.148,0.149l-0.147,0.15l-0.147,0.151l-0.145,0.152l-0.145,0.152l-0.144,0.154l-0.143,0.154l-0.142,0.156l-0.141,0.156l-0.14,0.157l-0.139,0.158l-0.139,0.158l-0.137,0.16l-0.136,0.16l-0.136,0.161l-0.134,0.162l-0.134,0.163l-0.132,0.163l-0.132,0.165l-0.131,0.165l-0.129,0.166l-0.129,0.167l-0.128,0.167l-0.126,0.169l-0.126,0.169l-0.125,0.17l-0.124,0.17l-0.122,0.172l-0.122,0.172l-0.121,0.173l-0.119,0.174l-0.119,0.174l-0.118,0.175l-0.116,0.176l-0.116,0.177l-0.115,0.178l-0.113,0.178l-0.113,0.179l-0.111,0.179l-0.11,0.18l-0.11,0.181l-0.108,0.182l-0.107,0.183l-0.106,0.183l-0.105,0.184l-0.104,0.184l-0.103,0.185l-0.102,0.186l-0.1,0.187l-0.1,0.187l-0.098,0.188l-0.098,0.188l-0.096,0.19l-0.095,0.189l-0.094,0.191l-0.093,0.191l-0.092,0.192l-0.09,0.192l-0.09,0.193l-0.088,0.194l-0.087,0.194l-0.086,0.195l-0.085,0.196l-0.084,0.196l-0.083,0.197l-0.081,0.197l-0.08,0.198l-0.079,0.199l-0.078,0.199l-0.077,0.199l-0.075,0.201l-0.075,0.201l-0.073,0.201l-0.072,0.202l-0.07,0.203l-0.07,0.203l-0.068,0.204l-0.067,0.204l-0.066,0.205l-0.065,0.205l-0.063,0.206l-0.062,0.206l-0.061,0.207l-0.06,0.208l-0.058,0.208l-0.058,0.208l-0.055,0.209l-0.055,0.21l-0.054,0.21l-0.052,0.211l-0.051,0.211l-0.049,0.211l-0.048,0.212l-0.047,0.213l-0.046,0.213l-0.045,0.213l-0.043,0.214l-0.042,0.215l-0.04,0.215l-0.039,0.215l-0.038,0.216l-0.037,0.216l-0.035,0.217l-0.034,0.217l-0.033,0.218l-0.031,0.218l-0.03,0.218l-0.028,0.219l-0.027,0.219l-0.026,0.22l-0.025,0.22l-0.023,0.221l-0.022,0.221l-0.02,0.222l-0.019,0.221l-0.018,0.223l-0.016,0.222l-0.015,0.223l-0.013,0.224l-0.012,0.224l-0.011,0.224l-0.009,0.224l-0.008,0.225l-0.007,0.226l-0.005,0.225l-0.003,0.226l-0.002,0.227l-0.001,0.23l0,724.339l0.001,0.23l0.002,0.226l0.003,0.226l0.005,0.226l0.007,0.225l0.008,0.225l0.009,0.225l0.011,0.224l0.012,0.224l0.013,0.223l0.015,0.223l0.016,0.223l0.018,0.222l0.019,0.222l0.02,0.221l0.022,0.221l0.023,0.221l0.025,0.22l0.026,0.22l0.027,0.219l0.028,0.219l0.03,0.219l0.031,0.218l0.033,0.218l0.034,0.217l0.035,0.216l0.037,0.217l0.038,0.216l0.039,0.215l0.04,0.215l0.042,0.214l0.043,0.214l0.045,0.214l0.046,0.213l0.047,0.212l0.048,0.212l0.049,0.212l0.051,0.211l0.052,0.211l0.054,0.21l0.055,0.209l0.055,0.209l0.058,0.209l0.058,0.208l0.06,0.207l0.061,0.207l0.062,0.207l0.063,0.206l0.065,0.205l0.066,0.205l0.067,0.204l0.068,0.204l0.07,0.203l0.07,0.202l0.072,0.202l0.073,0.202l0.075,0.201l0.075,0.2l0.077,0.2l0.078,0.199l0.079,0.199l0.08,0.197l0.081,0.198l0.083,0.197l0.084,0.196l0.085,0.195l0.086,0.195l0.087,0.195l0.088,0.193l0.09,0.193l0.09,0.193l0.092,0.192l0.093,0.191l0.094,0.19l0.095,0.19l0.096,0.189l0.098,0.189l0.098,0.188l0.1,0.187l0.1,0.186l0.102,0.186l0.103,0.185l0.104,0.185l0.105,0.184l0.106,0.183l0.107,0.182l0.108,0.182l0.11,0.181l0.11,0.18l0.111,0.18l0.113,0.179l0.113,0.178l0.115,0.177l0.116,0.177l0.116,0.176l0.118,0.175l0.119,0.175l0.119,0.174l0.121,0.172l0.122,0.173l0.122,0.171l0.124,0.171l0.125,0.17l0.126,0.169l0.126,0.168l0.128,0.168l0.129,0.167l0.129,0.166l0.131,0.165l0.132,0.164l0.132,0.164l0.134,0.162l0.134,0.162l0.136,0.162l0.136,0.16l0.137,0.159l0.139,0.159l0.139,0.158l0.14,0.157l0.141,0.156l0.142,0.155l0.143,0.155l0.144,0.153l0.145,0.153l0.145,0.152l0.147,0.151l0.147,0.15l0.148,0.149l0.15,0.148l0.15,0.148l0.151,0.146l0.152,0.146l0.152,0.145l0.154,0.143l0.154,0.143l0.155,0.142l0.157,0.141l0.157,0.14l0.157,0.14l0.159,0.138l0.16,0.137l0.16,0.137l0.161,0.135l0.162,0.135l0.163,0.133l0.163,0.133l0.165,0.131l0.165,0.131l0.166,0.13l0.167,0.128l0.167,0.128l0.169,0.127l0.169,0.126l0.17,0.124l0.17,0.124l0.172,0.123l0.172,0.121l0.173,0.121l0.174,0.12l0.174,0.119l0.175,0.117l0.176,0.117l0.177,0.115l0.177,0.115l0.179,0.114l0.178,0.112l0.18,0.111l0.18,0.111l0.181,0.109l0.182,0.108l0.183,0.107l0.183,0.106l0.183,0.105l0.185,0.104l0.185,0.103l0.186,0.102l0.187,0.101l0.187,0.099l0.188,0.099l0.188,0.097l0.189,0.096l0.19,0.095l0.191,0.094l0.191,0.093l0.192,0.092l0.192,0.091l0.193,0.089l0.194,0.089l0.194,0.087l0.195,0.086l0.196,0.085l0.196,0.083l0.196,0.083l0.198,0.081l0.198,0.081l0.198,0.079l0.2,0.078l0.199,0.076l0.2,0.076l0.201,0.074l0.202,0.073l0.202,0.072l0.203,0.071l0.203,0.069l0.203,0.069l0.205,0.067l0.204,0.066l0.206,0.064l0.206,0.064l0.206,0.062l0.207,0.061l0.208,0.059l0.208,0.059l0.208,0.057l0.209,0.056l0.21,0.055l0.21,0.053l0.21,0.052l0.211,0.051l0.212,0.049l0.212,0.049l0.213,0.047l0.212,0.046l0.214,0.044l0.214,0.043l0.215,0.042l0.214,0.04l0.216,0.04l0.216,0.038l0.216,0.036l0.217,0.035l0.217,0.034l0.217,0.033l0.219,0.031l0.218,0.03l0.219,0.029l0.219,0.027l0.22,0.026l0.22,0.024l0.221,0.023l0.221,0.022l0.221,0.021l0.222,0.019l0.222,0.017l0.223,0.016l0.223,0.015l0.224,0.014l0.223,0.012l0.225,0.011l0.224,0.009l0.225,0.008l0.225,0.006l0.226,0.005l0.226,0.004l0.227,0.002l0.23,0.001l319.22,0l0.23,-0.001l0.226,-0.002l0.226,-0.004l0.226,-0.005l0.225,-0.006l0.225,-0.008l0.225,-0.009l0.224,-0.011l0.224,-0.012l0.223,-0.014l0.223,-0.015l0.223,-0.016l0.222,-0.017l0.222,-0.019l0.221,-0.021l0.221,-0.022l0.221,-0.023l0.22,-0.024l0.22,-0.026l0.219,-0.027l0.219,-0.029l0.219,-0.03l0.218,-0.031l0.217,-0.033l0.218,-0.034l0.216,-0.035l0.217,-0.036l0.215,-0.038l0.216,-0.04l0.215,-0.04l0.214,-0.042l0.214,-0.043l0.214,-0.044l0.213,-0.046l0.212,-0.047l0.212,-0.049l0.212,-0.049l0.211,-0.051l0.21,-0.052l0.21,-0.053l0.21,-0.055l0.209,-0.056l0.208,-0.057l0.209,-0.059l0.207,-0.059l0.207,-0.061l0.207,-0.062l0.205,-0.064l0.206,-0.065l0.205,-0.065l0.204,-0.067l0.203,-0.069l0.204,-0.069l0.202,-0.071l0.202,-0.072l0.202,-0.073l0.201,-0.074l0.2,-0.076l0.2,-0.076l0.199,-0.078l0.198,-0.079l0.198,-0.081l0.198,-0.081l0.196,-0.083l0.197,-0.083l0.195,-0.085l0.195,-0.086l0.194,-0.087l0.194,-0.089l0.193,-0.089l0.193,-0.091l0.191,-0.092l0.191,-0.093l0.191,-0.094l0.19,-0.095l0.189,-0.096l0.189,-0.097l0.187,-0.099l0.188,-0.099l0.186,-0.101l0.186,-0.102l0.185,-0.103l0.185,-0.104l0.184,-0.105l0.183,-0.106l0.182,-0.107l0.182,-0.108l0.181,-0.109l0.18,-0.111l0.18,-0.111l0.179,-0.112l0.178,-0.114l0.177,-0.115l0.177,-0.115l0.176,-0.117l0.175,-0.117l0.175,-0.119l0.173,-0.12l0.173,-0.121l0.173,-0.121l0.171,-0.123l0.171,-0.124l0.17,-0.124l0.169,-0.126l0.168,-0.127l0.168,-0.128l0.166,-0.128l0.166,-0.13l0.166,-0.131l0.164,-0.131l0.164,-0.133l0.162,-0.133l0.162,-0.135l0.161,-0.135l0.161,-0.137l0.159,-0.137l0.159,-0.138l0.158,-0.14l0.157,-0.14l0.156,-0.141l0.155,-0.142l0.154,-0.143l0.154,-0.143l0.153,-0.145l0.152,-0.146l0.151,-0.146l0.15,-0.148l0.149,-0.148l0.148,-0.149l0.147,-0.15l0.147,-0.151l0.146,-0.152l0.144,-0.153l0.144,-0.154l0.143,-0.154l0.142,-0.155l0.141,-0.156l0.14,-0.157l0.14,-0.158l0.138,-0.159l0.137,-0.159l0.136,-0.16l0.136,-0.162l0.134,-0.161l0.134,-0.163l0.133,-0.164l0.131,-0.164l0.131,-0.165l0.13,-0.166l0.128,-0.167l0.128,-0.168l0.127,-0.168l0.125,-0.169l0.125,-0.17l0.124,-0.171l0.123,-0.171l0.121,-0.172l0.121,-0.173l0.12,-0.174l0.118,-0.175l0.118,-0.175l0.117,-0.176l0.115,-0.177l0.115,-0.177l0.113,-0.178l0.113,-0.179l0.111,-0.18l0.111,-0.18l0.109,-0.181l0.108,-0.182l0.107,-0.182l0.106,-0.183l0.105,-0.184l0.104,-0.184l0.103,-0.186l0.102,-0.186l0.101,-0.186l0.099,-0.187l0.099,-0.188l0.097,-0.189l0.096,-0.189l0.095,-0.19l0.094,-0.19l0.093,-0.191l0.092,-0.192l0.091,-0.193l0.089,-0.193l0.088,-0.193l0.087,-0.195l0.087,-0.195l0.084,-0.195l0.084,-0.196l0.083,-0.197l0.081,-0.198l0.08,-0.197l0.079,-0.199l0.078,-0.199l0.077,-0.2l0.076,-0.2l0.074,-0.201l0.073,-0.201l0.072,-0.203l0.071,-0.202l0.069,-0.203l0.068,-0.204l0.067,-0.204l0.066,-0.205l0.065,-0.205l0.063,-0.206l0.063,-0.207l0.06,-0.207l0.06,-0.207l0.059,-0.208l0.057,-0.209l0.056,-0.209l0.054,-0.209l0.054,-0.21l0.052,-0.211l0.051,-0.211l0.049,-0.212l0.049,-0.212l0.047,-0.212l0.045,-0.213l0.045,-0.214l0.043,-0.214l0.042,-0.214l0.04,-0.215l0.04,-0.215l0.037,-0.216l0.037,-0.216l0.035,-0.217l0.034,-0.218l0.033,-0.217l0.031,-0.218l0.03,-0.219l0.028,-0.219l0.028,-0.219l0.026,-0.22l0.024,-0.22l0.023,-0.221l0.022,-0.22l0.02,-0.222l0.019,-0.222l0.018,-0.222l0.016,-0.223l0.015,-0.223l0.014,-0.223l0.012,-0.224l0.01,-0.224l0.01,-0.225l0.007,-0.225l0.007,-0.225l0.005,-0.226l0.004,-0.226l0.002,-0.226l0,-0.23l0,-724.339l0,-0.23l-0.002,-0.227l-0.004,-0.226l-0.005,-0.225l-0.007,-0.226l-0.007,-0.225l-0.01,-0.224l-0.01,-0.224l-0.012,-0.224l-0.014,-0.224l-0.015,-0.223l-0.016,-0.222l-0.018,-0.222l-0.019,-0.222l-0.02,-0.222l-0.022,-0.221l-0.023,-0.22l-0.024,-0.221l-0.026,-0.22l-0.028,-0.219l-0.028,-0.219l-0.03,-0.218l-0.031,-0.218l-0.033,-0.218l-0.034,-0.217l-0.035,-0.217l-0.037,-0.216l-0.037,-0.216l-0.04,-0.216l-0.04,-0.214l-0.042,-0.215l-0.043,-0.214l-0.045,-0.213l-0.045,-0.213l-0.047,-0.213l-0.049,-0.212l-0.049,-0.212l-0.051,-0.21l-0.052,-0.211l-0.054,-0.21l-0.054,-0.21l-0.056,-0.209l-0.057,-0.208l-0.059,-0.208l-0.06,-0.208l-0.06,-0.207l-0.063,-0.206l-0.063,-0.206l-0.065,-0.205l-0.066,-0.205l-0.067,-0.204l-0.068,-0.204l-0.069,-0.203l-0.071,-0.203l-0.072,-0.202l-0.073,-0.201l-0.074,-0.201l-0.076,-0.201l-0.077,-0.199l-0.078,-0.199l-0.079,-0.199l-0.08,-0.198l-0.081,-0.197l-0.083,-0.197l-0.084,-0.196l-0.084,-0.196l-0.087,-0.195l-0.087,-0.194l-0.088,-0.194l-0.089,-0.193l-0.091,-0.192l-0.092,-0.192l-0.093,-0.191l-0.094,-0.191l-0.095,-0.19l-0.096,-0.189l-0.097,-0.188l-0.099,-0.188l-0.099,-0.187l-0.101,-0.187l-0.102,-0.186l-0.103,-0.185l-0.104,-0.184l-0.105,-0.184l-0.106,-0.183l-0.107,-0.183l-0.108,-0.182l-0.109,-0.181l-0.111,-0.18l-0.111,-0.179l-0.113,-0.179l-0.113,-0.178l-0.115,-0.178l-0.115,-0.177l-0.117,-0.176l-0.118,-0.175l-0.118,-0.174l-0.12,-0.174l-0.121,-0.173l-0.121,-0.172l-0.123,-0.172l-0.124,-0.17l-0.125,-0.17l-0.125,-0.169l-0.127,-0.169l-0.128,-0.167l-0.128,-0.167l-0.13,-0.166l-0.131,-0.165l-0.131,-0.165l-0.133,-0.163l-0.134,-0.163l-0.134,-0.162l-0.135,-0.161l-0.137,-0.16l-0.137,-0.16l-0.138,-0.158l-0.14,-0.158l-0.14,-0.157l-0.141,-0.156l-0.142,-0.156l-0.143,-0.154l-0.144,-0.154l-0.144,-0.152l-0.146,-0.152l-0.147,-0.151l-0.147,-0.15l-0.148,-0.149l-0.149,-0.149l-0.15,-0.147l-0.151,-0.147l-0.152,-0.145l-0.153,-0.145l-0.154,-0.144l-0.154,-0.143l-0.155,-0.142l-0.156,-0.141l-0.157,-0.14l-0.158,-0.139l-0.159,-0.138l-0.159,-0.138l-0.161,-0.136l-0.161,-0.136l-0.162,-0.134l-0.162,-0.134l-0.164,-0.132l-0.164,-0.132l-0.166,-0.13l-0.166,-0.13l-0.166,-0.129l-0.168,-0.128l-0.168,-0.126l-0.169,-0.126l-0.17,-0.125l-0.171,-0.123l-0.171,-0.123l-0.173,-0.122l-0.173,-0.121l-0.173,-0.119l-0.175,-0.119l-0.175,-0.118l-0.176,-0.116l-0.177,-0.116l-0.177,-0.114l-0.178,-0.114l-0.179,-0.112l-0.18,-0.112l-0.18,-0.11l-0.181,-0.109l-0.182,-0.109l-0.182,-0.107l-0.183,-0.106l-0.184,-0.105l-0.185,-0.104l-0.185,-0.103l-0.186,-0.101l-0.186,-0.101l-0.188,-0.1l-0.187,-0.098l-0.189,-0.098l-0.189,-0.096l-0.19,-0.095l-0.19,-0.094l-0.192,-0.093l-0.191,-0.091l-0.193,-0.091l-0.193,-0.09l-0.194,-0.088l-0.194,-0.087l-0.195,-0.086l-0.195,-0.085l-0.197,-0.084l-0.196,-0.082l-0.198,-0.082l-0.198,-0.08l-0.198,-0.079l-0.199,-0.078l-0.2,-0.077l-0.2,-0.075l-0.201,-0.074l-0.202,-0.074l-0.202,-0.072l-0.202,-0.07l-0.203,-0.07l-0.204,-0.068l-0.204,-0.067l-0.205,-0.066l-0.206,-0.065l-0.205,-0.063l-0.207,-0.062l-0.207,-0.061l-0.207,-0.06l-0.208,-0.058l-0.209,-0.057l-0.209,-0.056l-0.209,-0.055l-0.211,-0.053l-0.21,-0.053l-0.211,-0.05l-0.212,-0.05l-0.212,-0.048l-0.212,-0.047l-0.213,-0.046l-0.214,-0.044l-0.214,-0.044l-0.214,-0.041l-0.215,-0.041l-0.216,-0.039l-0.215,-0.038l-0.217,-0.037l-0.216,-0.035l-0.218,-0.034l-0.217,-0.032l-0.218,-0.032l-0.219,-0.03l-0.219,-0.028l-0.219,-0.027l-0.22,-0.026l-0.22,-0.025l-0.221,-0.023l-0.221,-0.022l-0.221,-0.02l-0.222,-0.019l-0.222,-0.018l-0.223,-0.016l-0.223,-0.015l-0.223,-0.013l-0.224,-0.012l-0.224,-0.011l-0.225,-0.009l-0.225,-0.008l-0.225,-0.007l-0.226,-0.005l-0.226,-0.003l-0.226,-0.002l-0.23,-0.001l-319.22,0Z" style="fill:#535353;"/><circle cx="201.231" cy="39.878" r="14.227" style="fill:#d8d8d8;"/><circle cx="201.998" cy="748.244" r="27.456" style="fill:#d8d8d8;"/><circle cx="239.2" cy="39.878" r="7.114" style="fill:#d8d8d8;"/></svg>