<?xml version="1.0" encoding="UTF-8" standalone="no"?><!DOCTYPE svg PUBLIC "-//W3C//DTD SVG 1.1//EN" "http://www.w3.org/Graphics/SVG/1.1/DTD/svg11.dtd"><svg width="100%" height="100%" viewBox="0 0 290 280" version="1.1" xmlns="http://www.w3.org/2000/svg" xmlns:xlink="http://www.w3.org/1999/xlink" xml:space="preserve" xmlns:serif="http://www.serif.com/" style="fill-rule:evenodd;clip-rule:evenodd;stroke-linecap:round;stroke-linejoin:round;stroke-miterlimit:1.5;"><path d="M143,37.997l0,5.003l-3,0l3,3l3,-3l-3,0" style="fill:#7a8087;stroke:#7a8087;stroke-width:1px;"/><path d="M218,114.705l0,5.003l-3,0l3,3l3,-3l-3,0" style="fill:#7a8087;stroke:#7a8087;stroke-width:1px;"/><path d="M218,152.705l0,5.003l-3,0l3,3l3,-3l-3,0" style="fill:#7a8087;stroke:#7a8087;stroke-width:1px;"/><path d="M143.5,191.997l0,5.003l-3,0l3,3l3,-3l-3,0" style="fill:#7a8087;stroke:#7a8087;stroke-width:1px;"/><path d="M143.5,230.999l0,5.002l-3,0l3,3l3,-3l-3,0" style="fill:#7a8087;stroke:#7a8087;stroke-width:1px;"/><path d="M281.621,207.831l-5.003,0l0,-3l-3,3l3,3l0,-3" style="fill:#7a8087;stroke:#7a8087;stroke-width:1px;"/><path d="M281.621,224.246l-5.003,0l0,-3l-3,3l3,3l0,-3" style="fill:#7a8087;stroke:#7a8087;stroke-width:1px;"/><path d="M102.5,75.999l0,5.002l-3,0l3,3l3,-3l-3,0" style="fill:#7a8087;stroke:#7a8087;stroke-width:1px;"/><path d="M66.88,113.499l0,44.002l-3,0l3,3l3,-3l-3,0" style="fill:#7a8087;stroke:#7a8087;stroke-width:1px;"/><path d="M218.5,23.999l0,56.002l-3,0l3,3l3,-3l-3,0" style="fill:#7a8087;stroke:#7a8087;stroke-width:1px;"/><path d="M281.621,207.831l0,9.169l-10.001,0" style="fill:none;stroke:#7a8087;stroke-width:1px;"/><path d="M281.621,224.246l0,32.169l-10.001,0" style="fill:none;stroke:#7a8087;stroke-width:1px;"/><path d="M281.621,174.831l-5.003,0l0,-3l-3,3l3,3l0,-3" style="fill:#7a8087;stroke:#7a8087;stroke-width:1px;"/><path d="M281.621,174.831l0,9.169l-10.001,0" style="fill:none;stroke:#7a8087;stroke-width:1px;"/><path d="M281.621,134.454l-5.003,0l0,-3l-3,3l3,3l0,-3" style="fill:#7a8087;stroke:#7a8087;stroke-width:1px;"/><path d="M281.621,134.454l0,9.169l-10.001,0" style="fill:none;stroke:#7a8087;stroke-width:1px;"/><path d="M188.5,75.999l0,5.002l-3,0l3,3l3,-3l-3,0" style="fill:#7a8087;stroke:#7a8087;stroke-width:1px;"/><rect x="84.38" y="9.79" width="117.239" height="28.208" style="fill:#7a8087;"/><rect x="84.38" y="46.924" width="117.239" height="29.662" style="fill:#b3b8be;"/><text x="96.916px" y="26.986px" style="font-family:'AftenScreen', 'Aften Screen', sans-serif;font-size:9.7px;fill:#fff;">U<tspan x="102.96px 107.393px " y="26.986px 26.986px ">se</tspan>r</text><text x="97.206px" y="64.979px" style="font-family:'AftenScreen', 'Aften Screen', sans-serif;font-size:9.692px;fill:#fff;">Create proï¬le</text><rect x="9.38" y="84.924" width="117.239" height="29.662" style="fill:#b3b8be;"/><text x="28.206px" y="102.979px" style="font-family:'AftenScreen', 'Aften Screen', sans-serif;font-size:9.692px;fill:#fff;">Add tra<tspan x="59.254px " y="102.979px ">v</tspan>el information</text><rect x="15.38" y="84.924" width="117.239" height="29.662" style="fill:#b3b8be;"/><text x="20.206px" y="102.979px" style="font-family:'AftenScreen', 'Aften Screen', sans-serif;font-size:9.692px;fill:#fff;">Join a trip</text><rect x="154.38" y="84.708" width="117.239" height="29.662" style="fill:#b3b8be;"/><text x="167.206px" y="102.763px" style="font-family:'AftenScreen', 'Aften Screen', sans-serif;font-size:9.692px;fill:#fff;">Add tra<tspan x="198.254px " y="102.763px ">v</tspan>el information</text><rect x="154.38" y="84.708" width="117.239" height="29.662" style="fill:#b3b8be;"/><rect x="154.38" y="84.708" width="117.239" height="29.662" style="fill:#b3b8be;"/><text x="167.206px" y="102.763px" style="font-family:'AftenScreen', 'Aften Screen', sans-serif;font-size:9.692px;fill:#fff;">Create a trip</text><text x="167.206px" y="102.763px" style="font-family:'AftenScreen', 'Aften Screen', sans-serif;font-size:9.692px;fill:#fff;">Create a trip</text><rect x="154.38" y="122.708" width="117.239" height="29.662" style="fill:#b3b8be;"/><text x="167.206px" y="140.763px" style="font-family:'AftenScreen', 'Aften Screen', sans-serif;font-size:9.692px;fill:#fff;">Add user</text><rect x="9.38" y="163.708" width="262.239" height="29.662" style="fill:#b3b8be;"/><text x="71.03px" y="181.264px" style="font-family:'AftenScreen', 'Aften Screen', sans-serif;font-size:9.692px;fill:#fff;">A<tspan x="76.718px 80.13px 83.589px " y="181.264px 181.264px 181.264px ">tta</tspan>ch/<tspan x="102.22px " y="181.264px ">d</tspan>etach users to<tspan x="166.84px 170.763px 173.834px " y="181.264px 181.264px 181.264px ">/fr</tspan>om lens</text><rect x="9.38" y="202" width="262.239" height="29.662" style="fill:#b3b8be;"/><text x="119.406px" y="220.217px" style="font-family:'AftenScreen', 'Aften Screen', sans-serif;font-size:9.692px;fill:#fff;">Mov<tspan x="136.565px " y="220.217px ">e</tspan> lens</text><rect x="9.38" y="241" width="262.239" height="30.885" style="fill:#2854a7;"/><text x="94.586px" y="259.212px" style="font-family:'AftenScreen', 'Aften Screen', sans-serif;font-size:9.692px;fill:#fff;">Add to country wishlist</text><path d="M218.5,23.999l-17.5,0" style="fill:none;stroke:#7a8087;stroke-width:1px;"/><path d="M66.88,25.999l0,56.002l3,0l-3,3l-3,-3l3,0" style="fill:#7a8087;stroke:#7a8087;stroke-width:1px;"/><path d="M66.88,25.999l17.5,0" style="fill:none;stroke:#7a8087;stroke-width:1px;"/></svg>