<?xml version="1.0" encoding="UTF-8" standalone="no"?><!DOCTYPE svg PUBLIC "-//W3C//DTD SVG 1.1//EN" "http://www.w3.org/Graphics/SVG/1.1/DTD/svg11.dtd"><svg width="100%" height="100%" viewBox="0 0 800 400" version="1.1" xmlns="http://www.w3.org/2000/svg" xmlns:xlink="http://www.w3.org/1999/xlink" xml:space="preserve" xmlns:serif="http://www.serif.com/" style="fill-rule:evenodd;clip-rule:evenodd;stroke-linecap:round;stroke-linejoin:round;stroke-miterlimit:1.5;"><path d="M432.604,22.203c86.541,0 156.801,70.26 156.801,156.801c0,86.541 -70.26,156.801 -156.801,156.801c-86.541,0 -156.801,-70.26 -156.801,-156.801c0,-86.541 70.26,-156.801 156.801,-156.801Zm0,30.074c69.942,0 126.727,56.785 126.727,126.727c0,69.943 -56.785,126.727 -126.727,126.727c-69.942,0 -126.727,-56.784 -126.727,-126.727c0,-69.942 56.785,-126.727 126.727,-126.727Z" style="fill:#545765;"/><path d="M491.691,51.971c9.244,-26.082 33.915,-44.72 62.851,-44.72c36.925,0 66.903,30.349 66.903,67.73c0,26.909 -15.534,50.174 -38.023,61.015l-91.731,-84.025Z" style="fill:#545765;"/><path d="M556.981,260.389c16.667,8.545 26.752,26.712 23.718,45.703c-3.807,23.832 -26.839,39.994 -51.402,36.07c-17.728,-2.832 -31.439,-15.359 -36.209,-31.069l63.893,-50.704Z" style="fill:#545765;"/><path d="M534.002,312.276l5.952,-6.231l-6.231,-5.952l2.847,-2.981l6.231,5.952l5.952,-6.231l2.981,2.847l-5.952,6.231l6.231,5.952l-2.848,2.981l-6.23,-5.952l-5.953,6.231l-2.98,-2.847Z" style="fill:#fff;"/><g id="User-bubble" serif:id="User bubble"><circle cx="542.67" cy="45.817" r="25.807" style="fill:#fff;"/><path d="M556.696,57.109l-28.053,0c0,0 1.964,-11.64 14.576,-11.64c12.612,0 13.477,11.64 13.477,11.64Z" style="fill:#adb2be;"/><circle cx="542.67" cy="39.147" r="8.303" style="fill:#adb2be;"/></g><g id="User-bubble1" serif:id="User bubble"><circle cx="734.792" cy="100.788" r="25.807" style="fill:#fff;"/><path d="M748.818,112.08l-28.053,0c0,0 1.964,-11.64 14.576,-11.64c12.612,0 13.477,11.64 13.477,11.64Z" style="fill:#adb2be;"/><circle cx="734.792" cy="94.118" r="8.303" style="fill:#adb2be;"/></g><path d="M637.016,32.093c0,0 43.448,3.762 68.115,22.327" style="fill:none;stroke:#adb2be;stroke-width:4px;"/><path d="M644.77,24.947l-4.427,17.055l-10.7,-12.076l15.127,-4.979Z" style="fill:#adb2be;stroke:#adb2be;stroke-width:4px;"/></svg>