<?xml version="1.0" encoding="UTF-8" standalone="no"?>
<!DOCTYPE svg PUBLIC "-//W3C//DTD SVG 1.1//EN" "http://www.w3.org/Graphics/SVG/1.1/DTD/svg11.dtd">
<svg width="100%" height="100%" viewBox="0 0 38 38" version="1.1" xmlns="http://www.w3.org/2000/svg" xmlns:xlink="http://www.w3.org/1999/xlink" xml:space="preserve" xmlns:serif="http://www.serif.com/" style="fill-rule:evenodd;clip-rule:evenodd;stroke-linejoin:round;stroke-miterlimit:1.41421;">
    <g transform="matrix(1,0,0,1,-341,-21)">
        <g transform="matrix(1,0,0,1,244,-39)">
            <path d="M116,65C123.727,65 130,71.273 130,79C130,86.727 123.727,93 116,93C108.273,93 102,86.727 102,79C102,71.273 108.273,65 116,65ZM116,70C120.967,70 125,74.033 125,79C125,83.967 120.967,88 116,88C111.033,88 107,83.967 107,79C107,74.033 111.033,70 116,70Z"/>
        </g>
    </g>
</svg>
