<?xml version="1.0" encoding="UTF-8" standalone="no"?><!DOCTYPE svg PUBLIC "-//W3C//DTD SVG 1.1//EN" "http://www.w3.org/Graphics/SVG/1.1/DTD/svg11.dtd"><svg width="100%" height="100%" viewBox="0 0 173 31" version="1.1" xmlns="http://www.w3.org/2000/svg" xmlns:xlink="http://www.w3.org/1999/xlink" xml:space="preserve" xmlns:serif="http://www.serif.com/" style="fill-rule:evenodd;clip-rule:evenodd;stroke-linejoin:round;stroke-miterlimit:1.41421;"><path d="M18.31,8.619c5.348,0 9.69,4.342 9.69,9.691c0,5.348 -4.342,9.69 -9.69,9.69c-5.349,0 -9.691,-4.342 -9.691,-9.69c0,-5.349 4.342,-9.691 9.691,-9.691Zm0,3.461c3.438,0 6.229,2.791 6.229,6.23c0,3.438 -2.791,6.229 -6.229,6.229c-3.439,0 -6.23,-2.791 -6.23,-6.229c0,-3.439 2.791,-6.23 6.23,-6.23Z"/><path d="M51,8.619c5.348,0 9.69,4.342 9.69,9.691c0,5.348 -4.342,9.69 -9.69,9.69c-5.348,0 -9.69,-4.342 -9.69,-9.69c0,-5.349 4.342,-9.691 9.69,-9.691Zm0,3.461c3.438,0 6.23,2.791 6.23,6.23c0,3.438 -2.792,6.229 -6.23,6.229c-3.438,0 -6.23,-2.791 -6.23,-6.229c0,-3.439 2.792,-6.23 6.23,-6.23Z"/><path d="M85,8.619c5.348,0 9.69,4.342 9.69,9.691c0,5.348 -4.342,9.69 -9.69,9.69c-5.348,0 -9.69,-4.342 -9.69,-9.69c0,-5.349 4.342,-9.691 9.69,-9.691Zm0,3.461c3.438,0 6.23,2.791 6.23,6.23c0,3.438 -2.792,6.229 -6.23,6.229c-3.438,0 -6.23,-2.791 -6.23,-6.229c0,-3.439 2.792,-6.23 6.23,-6.23Z"/><path d="M119,8.619c5.348,0 9.69,4.342 9.69,9.691c0,5.348 -4.342,9.69 -9.69,9.69c-5.348,0 -9.69,-4.342 -9.69,-9.69c0,-5.349 4.342,-9.691 9.69,-9.691Zm0,3.461c3.438,0 6.23,2.791 6.23,6.23c0,3.438 -2.792,6.229 -6.23,6.229c-3.438,0 -6.23,-2.791 -6.23,-6.229c0,-3.439 2.792,-6.23 6.23,-6.23Z"/><path d="M153,8.619c5.348,0 9.69,4.342 9.69,9.691c0,5.348 -4.342,9.69 -9.69,9.69c-5.348,0 -9.69,-4.342 -9.69,-9.69c0,-5.349 4.342,-9.691 9.69,-9.691Zm0,3.461c3.438,0 6.23,2.791 6.23,6.23c0,3.438 -2.792,6.229 -6.23,6.229c-3.438,0 -6.23,-2.791 -6.23,-6.229c0,-3.439 2.792,-6.23 6.23,-6.23Z"/></svg>