<svg width="100%" height="100%" viewBox="0 0 37 37" version="1.1" xmlns="http://www.w3.org/2000/svg" xmlns:xlink="http://www.w3.org/1999/xlink" xml:space="preserve" xmlns:serif="http://www.serif.com/" style="fill-rule:evenodd;clip-rule:evenodd;stroke-linejoin:round;stroke-miterlimit:1.41421;" class="logo-path"><path d="M18.667,0.993c-9.755,0 -17.667,7.91 -17.667,17.67c0,7.805 5.062,14.428 12.083,16.765c0.884,0.161 1.206,-0.384 1.206,-0.852c0,-0.42 -0.015,-1.53 -0.023,-3.006c-4.915,1.069 -5.952,-2.367 -5.952,-2.367c-0.804,-2.042 -1.962,-2.585 -1.962,-2.585c-1.604,-1.097 0.121,-1.074 0.121,-1.074c1.774,0.125 2.706,1.82 2.706,1.82c1.577,2.701 4.136,1.921 5.143,1.469c0.16,-1.142 0.617,-1.921 1.121,-2.363c-3.923,-0.445 -8.048,-1.962 -8.048,-8.732c0,-1.929 0.689,-3.506 1.819,-4.741c-0.182,-0.447 -0.788,-2.244 0.174,-4.676c0,0 1.483,-0.476 4.858,1.811c1.409,-0.392 2.921,-0.588 4.423,-0.594c1.501,0.006 3.012,0.202 4.424,0.594c3.373,-2.287 4.853,-1.811 4.853,-1.811c0.965,2.432 0.358,4.229 0.177,4.676c1.133,1.235 1.816,2.812 1.816,4.741c0,6.788 -4.131,8.281 -8.067,8.718c0.634,0.546 1.199,1.624 1.199,3.273c0,2.362 -0.022,4.268 -0.022,4.847c0,0.472 0.319,1.022 1.215,0.849c7.016,-2.34 12.074,-8.959 12.074,-16.762c0,-9.76 -7.912,-17.67 -17.671,-17.67Z" class="logo-path" /></svg>