<svg width="100%" height="100%" viewBox="0 0 37 37" version="1.1" xmlns="http://www.w3.org/2000/svg" xmlns:xlink="http://www.w3.org/1999/xlink" xml:space="preserve" xmlns:serif="http://www.serif.com/" style="fill-rule:evenodd;clip-rule:evenodd;stroke-linejoin:round;stroke-miterlimit:1.41421;" class="logo-path"><path d="M18.669,0.662c-4.799,0 -5.4,0.021 -7.285,0.107c-1.881,0.086 -3.165,0.384 -4.289,0.821c-1.162,0.452 -2.147,1.056 -3.129,2.038c-0.983,0.982 -1.587,1.968 -2.038,3.13c-0.437,1.123 -0.736,2.408 -0.822,4.288c-0.086,1.885 -0.106,2.487 -0.106,7.285c0,4.799 0.02,5.4 0.106,7.285c0.086,1.881 0.385,3.165 0.822,4.289c0.451,1.162 1.055,2.147 2.038,3.129c0.982,0.983 1.967,1.587 3.129,2.038c1.124,0.437 2.408,0.736 4.289,0.822c1.885,0.086 2.486,0.106 7.285,0.106c4.798,0 5.4,-0.02 7.285,-0.106c1.88,-0.086 3.165,-0.385 4.288,-0.822c1.162,-0.451 2.148,-1.055 3.13,-2.038c0.982,-0.982 1.586,-1.967 2.038,-3.129c0.437,-1.124 0.735,-2.408 0.821,-4.289c0.086,-1.885 0.107,-2.486 0.107,-7.285c0,-4.798 -0.021,-5.4 -0.107,-7.285c-0.086,-1.88 -0.384,-3.165 -0.821,-4.288c-0.452,-1.162 -1.056,-2.148 -2.038,-3.13c-0.982,-0.982 -1.968,-1.586 -3.13,-2.038c-1.123,-0.437 -2.408,-0.735 -4.288,-0.821c-1.885,-0.086 -2.487,-0.107 -7.285,-0.107Zm0,3.184c4.718,0 5.276,0.018 7.139,0.103c1.723,0.079 2.659,0.367 3.281,0.608c0.825,0.321 1.414,0.704 2.032,1.322c0.618,0.618 1.001,1.207 1.322,2.032c0.242,0.622 0.529,1.558 0.608,3.281c0.085,1.863 0.103,2.421 0.103,7.139c0,4.718 -0.018,5.277 -0.103,7.14c-0.079,1.723 -0.366,2.658 -0.608,3.281c-0.321,0.825 -0.704,1.413 -1.322,2.031c-0.618,0.619 -1.207,1.002 -2.032,1.322c-0.622,0.242 -1.558,0.53 -3.281,0.608c-1.862,0.085 -2.421,0.103 -7.139,0.103c-4.718,0 -5.277,-0.018 -7.14,-0.103c-1.723,-0.078 -2.658,-0.366 -3.281,-0.608c-0.825,-0.32 -1.413,-0.703 -2.031,-1.322c-0.619,-0.618 -1.002,-1.206 -1.322,-2.031c-0.242,-0.623 -0.53,-1.558 -0.608,-3.281c-0.085,-1.863 -0.103,-2.422 -0.103,-7.14c0,-4.718 0.018,-5.276 0.103,-7.139c0.078,-1.723 0.366,-2.659 0.608,-3.281c0.32,-0.825 0.703,-1.414 1.322,-2.032c0.618,-0.618 1.206,-1.001 2.031,-1.322c0.623,-0.241 1.558,-0.529 3.281,-0.608c1.863,-0.085 2.422,-0.103 7.14,-0.103Z" /> <path d="M18.669,24.221c-3.253,0 -5.89,-2.637 -5.89,-5.89c0,-3.253 2.637,-5.889 5.89,-5.889c3.253,0 5.889,2.636 5.889,5.889c0,3.253 -2.636,5.89 -5.889,5.89Zm0,-14.963c-5.011,0 -9.073,4.062 -9.073,9.073c0,5.011 4.062,9.073 9.073,9.073c5.011,0 9.073,-4.062 9.073,-9.073c0,-5.011 -4.062,-9.073 -9.073,-9.073Z" /><path d="M30.221,8.9c0,1.171 -0.95,2.12 -2.121,2.12c-1.171,0 -2.12,-0.949 -2.12,-2.12c0,-1.171 0.949,-2.121 2.12,-2.121c1.171,0 2.121,0.95 2.121,2.121Z" /></svg>