<?xml version="1.0" encoding="UTF-8" standalone="no"?><!DOCTYPE svg PUBLIC "-//W3C//DTD SVG 1.1//EN" "http://www.w3.org/Graphics/SVG/1.1/DTD/svg11.dtd"><svg width="100%" height="100%" viewBox="0 0 37 37" version="1.1" xmlns="http://www.w3.org/2000/svg" xmlns:xlink="http://www.w3.org/1999/xlink" xml:space="preserve" xmlns:serif="http://www.serif.com/" style="fill-rule:evenodd;clip-rule:evenodd;stroke-linejoin:round;stroke-miterlimit:1.41421;"><g id="Screen1"><g id="Logos"><g id="LinkedIn"><path d="M30.113,31.358l-5.064,0l0,-7.929c0,-1.89 -0.034,-4.323 -2.633,-4.323c-2.637,0 -3.042,2.06 -3.042,4.186l0,8.066l-5.063,0l0,-16.304l4.86,0l0,2.228l0.068,0c0.677,-1.282 2.33,-2.634 4.795,-2.634c5.132,0 6.079,3.378 6.079,7.767l0,8.943Zm-21.513,-18.533c-1.624,0 -2.938,-1.317 -2.938,-2.939c0,-1.62 1.314,-2.937 2.938,-2.937c1.62,0 2.937,1.317 2.937,2.937c0,1.622 -1.317,2.939 -2.937,2.939Zm2.533,18.533l-5.068,0l0,-16.304l5.068,0l0,16.304Zm21.504,-29.113l-29.115,0c-1.392,0 -2.522,1.103 -2.522,2.462l0,29.238c0,1.361 1.13,2.465 2.522,2.465l29.115,0c1.393,0 2.529,-1.104 2.529,-2.465l0,-29.238c0,-1.359 -1.136,-2.462 -2.529,-2.462Z" style="fill-rule:nonzero;"/></g></g></g></svg>