<?xml version="1.0" encoding="UTF-8" standalone="no"?><!DOCTYPE svg PUBLIC "-//W3C//DTD SVG 1.1//EN" "http://www.w3.org/Graphics/SVG/1.1/DTD/svg11.dtd"><svg width="100%" height="100%" viewBox="0 0 12 18" version="1.1" xmlns="http://www.w3.org/2000/svg" xmlns:xlink="http://www.w3.org/1999/xlink" xml:space="preserve" xmlns:serif="http://www.serif.com/" style="fill-rule:evenodd;clip-rule:evenodd;stroke-linecap:round;stroke-linejoin:round;stroke-miterlimit:1.5;"><path d="M5.911,1.623c-2.661,0 -4.671,3.165 -3.458,5.591c0.374,0.748 2.205,1.611 2.878,1.798c0.589,0.164 2.1,-0.106 2.791,-0.457c3.302,-1.673 1.251,-6.062 -0.593,-6.985c-0.948,-0.473 -3.211,-0.312 -4.09,0.554" style="fill:none;stroke:#000;stroke-width:1px;"/><path d="M5.417,13.148c0,0.927 -1.629,2.142 -2.098,2.869c-0.061,0.095 -0.906,0.727 -0.968,0.674c-0.065,-0.054 1.172,-1.091 1.293,-1.182c0.6,-0.453 1.866,-2.077 1.866,-2.603" style="fill:none;stroke:#000;stroke-width:1px;"/><path d="M5.51,12.906c0.566,0 1.299,0.878 1.874,1.103c0.607,0.237 1.169,0.546 1.737,0.867c0.442,0.249 0.826,0.55 1.254,0.81c0.18,0.109 0.681,0.484 0.531,0.337c-1.104,-1.084 -5.209,-1.825 -5.209,-3.687" style="fill:none;stroke:#000;stroke-width:1px;"/><path d="M6.349,12.888c0.713,0 2.749,-1.98 3.229,-2.464c0.243,-0.245 0.523,-1.143 0.637,-0.817c0.571,1.621 -6.917,4.725 -4.156,2.642" style="fill:none;stroke:#000;stroke-width:1px;"/><path d="M5.827,12.504c-0.618,0 -4.976,-1.372 -4.708,-1.688c0.195,-0.231 0.945,0.222 1.151,0.266c1.267,0.272 2.552,1.635 3.716,1.635" style="fill:none;stroke:#000;stroke-width:1px;"/><path d="M5.436,9.362c0,0.605 0,0.21 0,0.815l0,2.917c0,0.14 0.116,-0.257 0.154,-0.393c0.1,-0.356 0.169,-0.716 0.214,-1.079c0.065,-0.515 0.057,-1.132 0.182,-1.637c0.071,-0.287 0.182,-0.036 0.182,-0.273c0,-0.123 -0.095,0.234 -0.095,0.357c0,0.167 -0.203,-0.644 -0.203,-0.499" style="fill:none;stroke:#000;stroke-width:1px;"/></svg>