<?xml version="1.0" encoding="UTF-8" standalone="no"?><!DOCTYPE svg PUBLIC "-//W3C//DTD SVG 1.1//EN" "http://www.w3.org/Graphics/SVG/1.1/DTD/svg11.dtd"><svg width="100%" height="100%" viewBox="0 0 64 19" version="1.1" xmlns="http://www.w3.org/2000/svg" xmlns:xlink="http://www.w3.org/1999/xlink" xml:space="preserve" xmlns:serif="http://www.serif.com/" style="fill-rule:evenodd;clip-rule:evenodd;stroke-linejoin:round;stroke-miterlimit:1.5;"><path d="M17,20c0,0 2.557,-11 11,-11c8.443,0 11,11 11,11c0,0 1.436,12 12,12c10.564,0 12,-12 12,-12" style="fill:none;"/><path d="M4,9c0,0 0.166,-4 4,-4c3.834,0 4,4 4,4c0,0 0.022,4 4,4c3.978,0 4,-4 4,-4c0,0 0.175,-4 4,-4c3.825,0 4,4 4,4c0,0 0.223,4 4,4c3.777,0 4,-4 4,-4c0,0 0.269,-4 4,-4c3.731,0 4,4 4,4c0,0 0.359,4 4,4c3.641,0 4,-4 4,-4c0,0 0.304,-4 4,-4c3.696,0 4,4 4,4" style="fill:none;stroke:#000;stroke-width:2px;"/></svg>